<?xml version="1.0" encoding="utf-8" standalone="no"?>
<!DOCTYPE svg PUBLIC "-//W3C//DTD SVG 1.1//EN"
  "http://www.w3.org/Graphics/SVG/1.1/DTD/svg11.dtd">
<svg xmlns:xlink="http://www.w3.org/1999/xlink" width="792pt" height="432pt" viewBox="0 0 792 432" xmlns="http://www.w3.org/2000/svg" version="1.1">
 <metadata>
  <rdf:RDF xmlns:dc="http://purl.org/dc/elements/1.1/" xmlns:cc="http://creativecommons.org/ns#" xmlns:rdf="http://www.w3.org/1999/02/22-rdf-syntax-ns#">
   <cc:Work>
    <dc:type rdf:resource="http://purl.org/dc/dcmitype/StillImage"/>
    <dc:date>2026-06-07T23:24:30.397550</dc:date>
    <dc:format>image/svg+xml</dc:format>
    <dc:creator>
     <cc:Agent>
      <dc:title>Matplotlib v3.10.8, https://matplotlib.org/</dc:title>
     </cc:Agent>
    </dc:creator>
   </cc:Work>
  </rdf:RDF>
 </metadata>
 <defs>
  <style type="text/css">*{stroke-linejoin: round; stroke-linecap: butt}</style>
 </defs>
 <g id="figure_1">
  <g id="patch_1">
   <path d="M 0 432 
L 792 432 
L 792 0 
L 0 0 
z
" style="fill: #ffffff"/>
  </g>
  <g id="axes_1">
   <g id="patch_2">
    <path d="M 54.36875 389.5 
L 781.2 389.5 
L 781.2 25.8 
L 54.36875 25.8 
z
" style="fill: #ffffff"/>
   </g>
   <g id="matplotlib.axis_1">
    <g id="xtick_1">
     <g id="line2d_1">
      <path d="M 80.732234 389.5 
L 80.732234 25.8 
" clip-path="url(#p069d611813)" style="fill: none; stroke: #b0b0b0; stroke-opacity: 0.3; stroke-width: 0.8; stroke-linecap: square"/>
     </g>
     <g id="line2d_2">
      <defs>
       <path id="me38d3321a5" d="M 0 0 
L 0 3.5 
" style="stroke: #000000; stroke-width: 0.8"/>
      </defs>
      <g>
       <use xlink:href="#me38d3321a5" x="80.732234" y="389.5" style="stroke: #000000; stroke-width: 0.8"/>
      </g>
     </g>
     <g id="text_1">
      <!-- 0 -->
      <g transform="translate(77.550984 404.098437) scale(0.1 -0.1)">
       <defs>
        <path id="DejaVuSans-30" d="M 2034 4250 
Q 1547 4250 1301 3770 
Q 1056 3291 1056 2328 
Q 1056 1369 1301 889 
Q 1547 409 2034 409 
Q 2525 409 2770 889 
Q 3016 1369 3016 2328 
Q 3016 3291 2770 3770 
Q 2525 4250 2034 4250 
z
M 2034 4750 
Q 2819 4750 3233 4129 
Q 3647 3509 3647 2328 
Q 3647 1150 3233 529 
Q 2819 -91 2034 -91 
Q 1250 -91 836 529 
Q 422 1150 422 2328 
Q 422 3509 836 4129 
Q 1250 4750 2034 4750 
z
" transform="scale(0.015625)"/>
       </defs>
       <use xlink:href="#DejaVuSans-30"/>
      </g>
     </g>
    </g>
    <g id="xtick_2">
     <g id="line2d_3">
      <path d="M 214.218231 389.5 
L 214.218231 25.8 
" clip-path="url(#p069d611813)" style="fill: none; stroke: #b0b0b0; stroke-opacity: 0.3; stroke-width: 0.8; stroke-linecap: square"/>
     </g>
     <g id="line2d_4">
      <g>
       <use xlink:href="#me38d3321a5" x="214.218231" y="389.5" style="stroke: #000000; stroke-width: 0.8"/>
      </g>
     </g>
     <g id="text_2">
      <!-- 20 -->
      <g transform="translate(207.855731 404.098437) scale(0.1 -0.1)">
       <defs>
        <path id="DejaVuSans-32" d="M 1228 531 
L 3431 531 
L 3431 0 
L 469 0 
L 469 531 
Q 828 903 1448 1529 
Q 2069 2156 2228 2338 
Q 2531 2678 2651 2914 
Q 2772 3150 2772 3378 
Q 2772 3750 2511 3984 
Q 2250 4219 1831 4219 
Q 1534 4219 1204 4116 
Q 875 4013 500 3803 
L 500 4441 
Q 881 4594 1212 4672 
Q 1544 4750 1819 4750 
Q 2544 4750 2975 4387 
Q 3406 4025 3406 3419 
Q 3406 3131 3298 2873 
Q 3191 2616 2906 2266 
Q 2828 2175 2409 1742 
Q 1991 1309 1228 531 
z
" transform="scale(0.015625)"/>
       </defs>
       <use xlink:href="#DejaVuSans-32"/>
       <use xlink:href="#DejaVuSans-30" transform="translate(63.623047 0)"/>
      </g>
     </g>
    </g>
    <g id="xtick_3">
     <g id="line2d_5">
      <path d="M 347.704227 389.5 
L 347.704227 25.8 
" clip-path="url(#p069d611813)" style="fill: none; stroke: #b0b0b0; stroke-opacity: 0.3; stroke-width: 0.8; stroke-linecap: square"/>
     </g>
     <g id="line2d_6">
      <g>
       <use xlink:href="#me38d3321a5" x="347.704227" y="389.5" style="stroke: #000000; stroke-width: 0.8"/>
      </g>
     </g>
     <g id="text_3">
      <!-- 40 -->
      <g transform="translate(341.341727 404.098437) scale(0.1 -0.1)">
       <defs>
        <path id="DejaVuSans-34" d="M 2419 4116 
L 825 1625 
L 2419 1625 
L 2419 4116 
z
M 2253 4666 
L 3047 4666 
L 3047 1625 
L 3713 1625 
L 3713 1100 
L 3047 1100 
L 3047 0 
L 2419 0 
L 2419 1100 
L 313 1100 
L 313 1709 
L 2253 4666 
z
" transform="scale(0.015625)"/>
       </defs>
       <use xlink:href="#DejaVuSans-34"/>
       <use xlink:href="#DejaVuSans-30" transform="translate(63.623047 0)"/>
      </g>
     </g>
    </g>
    <g id="xtick_4">
     <g id="line2d_7">
      <path d="M 481.190223 389.5 
L 481.190223 25.8 
" clip-path="url(#p069d611813)" style="fill: none; stroke: #b0b0b0; stroke-opacity: 0.3; stroke-width: 0.8; stroke-linecap: square"/>
     </g>
     <g id="line2d_8">
      <g>
       <use xlink:href="#me38d3321a5" x="481.190223" y="389.5" style="stroke: #000000; stroke-width: 0.8"/>
      </g>
     </g>
     <g id="text_4">
      <!-- 60 -->
      <g transform="translate(474.827723 404.098437) scale(0.1 -0.1)">
       <defs>
        <path id="DejaVuSans-36" d="M 2113 2584 
Q 1688 2584 1439 2293 
Q 1191 2003 1191 1497 
Q 1191 994 1439 701 
Q 1688 409 2113 409 
Q 2538 409 2786 701 
Q 3034 994 3034 1497 
Q 3034 2003 2786 2293 
Q 2538 2584 2113 2584 
z
M 3366 4563 
L 3366 3988 
Q 3128 4100 2886 4159 
Q 2644 4219 2406 4219 
Q 1781 4219 1451 3797 
Q 1122 3375 1075 2522 
Q 1259 2794 1537 2939 
Q 1816 3084 2150 3084 
Q 2853 3084 3261 2657 
Q 3669 2231 3669 1497 
Q 3669 778 3244 343 
Q 2819 -91 2113 -91 
Q 1303 -91 875 529 
Q 447 1150 447 2328 
Q 447 3434 972 4092 
Q 1497 4750 2381 4750 
Q 2619 4750 2861 4703 
Q 3103 4656 3366 4563 
z
" transform="scale(0.015625)"/>
       </defs>
       <use xlink:href="#DejaVuSans-36"/>
       <use xlink:href="#DejaVuSans-30" transform="translate(63.623047 0)"/>
      </g>
     </g>
    </g>
    <g id="xtick_5">
     <g id="line2d_9">
      <path d="M 614.67622 389.5 
L 614.67622 25.8 
" clip-path="url(#p069d611813)" style="fill: none; stroke: #b0b0b0; stroke-opacity: 0.3; stroke-width: 0.8; stroke-linecap: square"/>
     </g>
     <g id="line2d_10">
      <g>
       <use xlink:href="#me38d3321a5" x="614.67622" y="389.5" style="stroke: #000000; stroke-width: 0.8"/>
      </g>
     </g>
     <g id="text_5">
      <!-- 80 -->
      <g transform="translate(608.31372 404.098437) scale(0.1 -0.1)">
       <defs>
        <path id="DejaVuSans-38" d="M 2034 2216 
Q 1584 2216 1326 1975 
Q 1069 1734 1069 1313 
Q 1069 891 1326 650 
Q 1584 409 2034 409 
Q 2484 409 2743 651 
Q 3003 894 3003 1313 
Q 3003 1734 2745 1975 
Q 2488 2216 2034 2216 
z
M 1403 2484 
Q 997 2584 770 2862 
Q 544 3141 544 3541 
Q 544 4100 942 4425 
Q 1341 4750 2034 4750 
Q 2731 4750 3128 4425 
Q 3525 4100 3525 3541 
Q 3525 3141 3298 2862 
Q 3072 2584 2669 2484 
Q 3125 2378 3379 2068 
Q 3634 1759 3634 1313 
Q 3634 634 3220 271 
Q 2806 -91 2034 -91 
Q 1263 -91 848 271 
Q 434 634 434 1313 
Q 434 1759 690 2068 
Q 947 2378 1403 2484 
z
M 1172 3481 
Q 1172 3119 1398 2916 
Q 1625 2713 2034 2713 
Q 2441 2713 2670 2916 
Q 2900 3119 2900 3481 
Q 2900 3844 2670 4047 
Q 2441 4250 2034 4250 
Q 1625 4250 1398 4047 
Q 1172 3844 1172 3481 
z
" transform="scale(0.015625)"/>
       </defs>
       <use xlink:href="#DejaVuSans-38"/>
       <use xlink:href="#DejaVuSans-30" transform="translate(63.623047 0)"/>
      </g>
     </g>
    </g>
    <g id="xtick_6">
     <g id="line2d_11">
      <path d="M 748.162216 389.5 
L 748.162216 25.8 
" clip-path="url(#p069d611813)" style="fill: none; stroke: #b0b0b0; stroke-opacity: 0.3; stroke-width: 0.8; stroke-linecap: square"/>
     </g>
     <g id="line2d_12">
      <g>
       <use xlink:href="#me38d3321a5" x="748.162216" y="389.5" style="stroke: #000000; stroke-width: 0.8"/>
      </g>
     </g>
     <g id="text_6">
      <!-- 100 -->
      <g transform="translate(738.618466 404.098437) scale(0.1 -0.1)">
       <defs>
        <path id="DejaVuSans-31" d="M 794 531 
L 1825 531 
L 1825 4091 
L 703 3866 
L 703 4441 
L 1819 4666 
L 2450 4666 
L 2450 531 
L 3481 531 
L 3481 0 
L 794 0 
L 794 531 
z
" transform="scale(0.015625)"/>
       </defs>
       <use xlink:href="#DejaVuSans-31"/>
       <use xlink:href="#DejaVuSans-30" transform="translate(63.623047 0)"/>
       <use xlink:href="#DejaVuSans-30" transform="translate(127.246094 0)"/>
      </g>
     </g>
    </g>
    <g id="text_7">
     <!-- Stride -->
     <g transform="translate(402.954687 417.776563) scale(0.1 -0.1)">
      <defs>
       <path id="DejaVuSans-53" d="M 3425 4513 
L 3425 3897 
Q 3066 4069 2747 4153 
Q 2428 4238 2131 4238 
Q 1616 4238 1336 4038 
Q 1056 3838 1056 3469 
Q 1056 3159 1242 3001 
Q 1428 2844 1947 2747 
L 2328 2669 
Q 3034 2534 3370 2195 
Q 3706 1856 3706 1288 
Q 3706 609 3251 259 
Q 2797 -91 1919 -91 
Q 1588 -91 1214 -16 
Q 841 59 441 206 
L 441 856 
Q 825 641 1194 531 
Q 1563 422 1919 422 
Q 2459 422 2753 634 
Q 3047 847 3047 1241 
Q 3047 1584 2836 1778 
Q 2625 1972 2144 2069 
L 1759 2144 
Q 1053 2284 737 2584 
Q 422 2884 422 3419 
Q 422 4038 858 4394 
Q 1294 4750 2059 4750 
Q 2388 4750 2728 4690 
Q 3069 4631 3425 4513 
z
" transform="scale(0.015625)"/>
       <path id="DejaVuSans-74" d="M 1172 4494 
L 1172 3500 
L 2356 3500 
L 2356 3053 
L 1172 3053 
L 1172 1153 
Q 1172 725 1289 603 
Q 1406 481 1766 481 
L 2356 481 
L 2356 0 
L 1766 0 
Q 1100 0 847 248 
Q 594 497 594 1153 
L 594 3053 
L 172 3053 
L 172 3500 
L 594 3500 
L 594 4494 
L 1172 4494 
z
" transform="scale(0.015625)"/>
       <path id="DejaVuSans-72" d="M 2631 2963 
Q 2534 3019 2420 3045 
Q 2306 3072 2169 3072 
Q 1681 3072 1420 2755 
Q 1159 2438 1159 1844 
L 1159 0 
L 581 0 
L 581 3500 
L 1159 3500 
L 1159 2956 
Q 1341 3275 1631 3429 
Q 1922 3584 2338 3584 
Q 2397 3584 2469 3576 
Q 2541 3569 2628 3553 
L 2631 2963 
z
" transform="scale(0.015625)"/>
       <path id="DejaVuSans-69" d="M 603 3500 
L 1178 3500 
L 1178 0 
L 603 0 
L 603 3500 
z
M 603 4863 
L 1178 4863 
L 1178 4134 
L 603 4134 
L 603 4863 
z
" transform="scale(0.015625)"/>
       <path id="DejaVuSans-64" d="M 2906 2969 
L 2906 4863 
L 3481 4863 
L 3481 0 
L 2906 0 
L 2906 525 
Q 2725 213 2448 61 
Q 2172 -91 1784 -91 
Q 1150 -91 751 415 
Q 353 922 353 1747 
Q 353 2572 751 3078 
Q 1150 3584 1784 3584 
Q 2172 3584 2448 3432 
Q 2725 3281 2906 2969 
z
M 947 1747 
Q 947 1113 1208 752 
Q 1469 391 1925 391 
Q 2381 391 2643 752 
Q 2906 1113 2906 1747 
Q 2906 2381 2643 2742 
Q 2381 3103 1925 3103 
Q 1469 3103 1208 2742 
Q 947 2381 947 1747 
z
" transform="scale(0.015625)"/>
       <path id="DejaVuSans-65" d="M 3597 1894 
L 3597 1613 
L 953 1613 
Q 991 1019 1311 708 
Q 1631 397 2203 397 
Q 2534 397 2845 478 
Q 3156 559 3463 722 
L 3463 178 
Q 3153 47 2828 -22 
Q 2503 -91 2169 -91 
Q 1331 -91 842 396 
Q 353 884 353 1716 
Q 353 2575 817 3079 
Q 1281 3584 2069 3584 
Q 2775 3584 3186 3129 
Q 3597 2675 3597 1894 
z
M 3022 2063 
Q 3016 2534 2758 2815 
Q 2500 3097 2075 3097 
Q 1594 3097 1305 2825 
Q 1016 2553 972 2059 
L 3022 2063 
z
" transform="scale(0.015625)"/>
      </defs>
      <use xlink:href="#DejaVuSans-53"/>
      <use xlink:href="#DejaVuSans-74" transform="translate(63.476562 0)"/>
      <use xlink:href="#DejaVuSans-72" transform="translate(102.685547 0)"/>
      <use xlink:href="#DejaVuSans-69" transform="translate(143.798828 0)"/>
      <use xlink:href="#DejaVuSans-64" transform="translate(171.582031 0)"/>
      <use xlink:href="#DejaVuSans-65" transform="translate(235.058594 0)"/>
     </g>
    </g>
   </g>
   <g id="matplotlib.axis_2">
    <g id="ytick_1">
     <g id="line2d_13">
      <path d="M 54.36875 345.972553 
L 781.2 345.972553 
" clip-path="url(#p069d611813)" style="fill: none; stroke: #b0b0b0; stroke-opacity: 0.3; stroke-width: 0.8; stroke-linecap: square"/>
     </g>
     <g id="line2d_14">
      <defs>
       <path id="m8003db1333" d="M 0 0 
L -3.5 0 
" style="stroke: #000000; stroke-width: 0.8"/>
      </defs>
      <g>
       <use xlink:href="#m8003db1333" x="54.36875" y="345.972553" style="stroke: #000000; stroke-width: 0.8"/>
      </g>
     </g>
     <g id="text_8">
      <!-- 7.0 -->
      <g transform="translate(31.465625 349.771771) scale(0.1 -0.1)">
       <defs>
        <path id="DejaVuSans-37" d="M 525 4666 
L 3525 4666 
L 3525 4397 
L 1831 0 
L 1172 0 
L 2766 4134 
L 525 4134 
L 525 4666 
z
" transform="scale(0.015625)"/>
        <path id="DejaVuSans-2e" d="M 684 794 
L 1344 794 
L 1344 0 
L 684 0 
L 684 794 
z
" transform="scale(0.015625)"/>
       </defs>
       <use xlink:href="#DejaVuSans-37"/>
       <use xlink:href="#DejaVuSans-2e" transform="translate(63.623047 0)"/>
       <use xlink:href="#DejaVuSans-30" transform="translate(95.410156 0)"/>
      </g>
     </g>
    </g>
    <g id="ytick_2">
     <g id="line2d_15">
      <path d="M 54.36875 299.421119 
L 781.2 299.421119 
" clip-path="url(#p069d611813)" style="fill: none; stroke: #b0b0b0; stroke-opacity: 0.3; stroke-width: 0.8; stroke-linecap: square"/>
     </g>
     <g id="line2d_16">
      <g>
       <use xlink:href="#m8003db1333" x="54.36875" y="299.421119" style="stroke: #000000; stroke-width: 0.8"/>
      </g>
     </g>
     <g id="text_9">
      <!-- 7.5 -->
      <g transform="translate(31.465625 303.220337) scale(0.1 -0.1)">
       <defs>
        <path id="DejaVuSans-35" d="M 691 4666 
L 3169 4666 
L 3169 4134 
L 1269 4134 
L 1269 2991 
Q 1406 3038 1543 3061 
Q 1681 3084 1819 3084 
Q 2600 3084 3056 2656 
Q 3513 2228 3513 1497 
Q 3513 744 3044 326 
Q 2575 -91 1722 -91 
Q 1428 -91 1123 -41 
Q 819 9 494 109 
L 494 744 
Q 775 591 1075 516 
Q 1375 441 1709 441 
Q 2250 441 2565 725 
Q 2881 1009 2881 1497 
Q 2881 1984 2565 2268 
Q 2250 2553 1709 2553 
Q 1456 2553 1204 2497 
Q 953 2441 691 2322 
L 691 4666 
z
" transform="scale(0.015625)"/>
       </defs>
       <use xlink:href="#DejaVuSans-37"/>
       <use xlink:href="#DejaVuSans-2e" transform="translate(63.623047 0)"/>
       <use xlink:href="#DejaVuSans-35" transform="translate(95.410156 0)"/>
      </g>
     </g>
    </g>
    <g id="ytick_3">
     <g id="line2d_17">
      <path d="M 54.36875 252.869685 
L 781.2 252.869685 
" clip-path="url(#p069d611813)" style="fill: none; stroke: #b0b0b0; stroke-opacity: 0.3; stroke-width: 0.8; stroke-linecap: square"/>
     </g>
     <g id="line2d_18">
      <g>
       <use xlink:href="#m8003db1333" x="54.36875" y="252.869685" style="stroke: #000000; stroke-width: 0.8"/>
      </g>
     </g>
     <g id="text_10">
      <!-- 8.0 -->
      <g transform="translate(31.465625 256.668903) scale(0.1 -0.1)">
       <use xlink:href="#DejaVuSans-38"/>
       <use xlink:href="#DejaVuSans-2e" transform="translate(63.623047 0)"/>
       <use xlink:href="#DejaVuSans-30" transform="translate(95.410156 0)"/>
      </g>
     </g>
    </g>
    <g id="ytick_4">
     <g id="line2d_19">
      <path d="M 54.36875 206.318251 
L 781.2 206.318251 
" clip-path="url(#p069d611813)" style="fill: none; stroke: #b0b0b0; stroke-opacity: 0.3; stroke-width: 0.8; stroke-linecap: square"/>
     </g>
     <g id="line2d_20">
      <g>
       <use xlink:href="#m8003db1333" x="54.36875" y="206.318251" style="stroke: #000000; stroke-width: 0.8"/>
      </g>
     </g>
     <g id="text_11">
      <!-- 8.5 -->
      <g transform="translate(31.465625 210.117469) scale(0.1 -0.1)">
       <use xlink:href="#DejaVuSans-38"/>
       <use xlink:href="#DejaVuSans-2e" transform="translate(63.623047 0)"/>
       <use xlink:href="#DejaVuSans-35" transform="translate(95.410156 0)"/>
      </g>
     </g>
    </g>
    <g id="ytick_5">
     <g id="line2d_21">
      <path d="M 54.36875 159.766816 
L 781.2 159.766816 
" clip-path="url(#p069d611813)" style="fill: none; stroke: #b0b0b0; stroke-opacity: 0.3; stroke-width: 0.8; stroke-linecap: square"/>
     </g>
     <g id="line2d_22">
      <g>
       <use xlink:href="#m8003db1333" x="54.36875" y="159.766816" style="stroke: #000000; stroke-width: 0.8"/>
      </g>
     </g>
     <g id="text_12">
      <!-- 9.0 -->
      <g transform="translate(31.465625 163.566035) scale(0.1 -0.1)">
       <defs>
        <path id="DejaVuSans-39" d="M 703 97 
L 703 672 
Q 941 559 1184 500 
Q 1428 441 1663 441 
Q 2288 441 2617 861 
Q 2947 1281 2994 2138 
Q 2813 1869 2534 1725 
Q 2256 1581 1919 1581 
Q 1219 1581 811 2004 
Q 403 2428 403 3163 
Q 403 3881 828 4315 
Q 1253 4750 1959 4750 
Q 2769 4750 3195 4129 
Q 3622 3509 3622 2328 
Q 3622 1225 3098 567 
Q 2575 -91 1691 -91 
Q 1453 -91 1209 -44 
Q 966 3 703 97 
z
M 1959 2075 
Q 2384 2075 2632 2365 
Q 2881 2656 2881 3163 
Q 2881 3666 2632 3958 
Q 2384 4250 1959 4250 
Q 1534 4250 1286 3958 
Q 1038 3666 1038 3163 
Q 1038 2656 1286 2365 
Q 1534 2075 1959 2075 
z
" transform="scale(0.015625)"/>
       </defs>
       <use xlink:href="#DejaVuSans-39"/>
       <use xlink:href="#DejaVuSans-2e" transform="translate(63.623047 0)"/>
       <use xlink:href="#DejaVuSans-30" transform="translate(95.410156 0)"/>
      </g>
     </g>
    </g>
    <g id="ytick_6">
     <g id="line2d_23">
      <path d="M 54.36875 113.215382 
L 781.2 113.215382 
" clip-path="url(#p069d611813)" style="fill: none; stroke: #b0b0b0; stroke-opacity: 0.3; stroke-width: 0.8; stroke-linecap: square"/>
     </g>
     <g id="line2d_24">
      <g>
       <use xlink:href="#m8003db1333" x="54.36875" y="113.215382" style="stroke: #000000; stroke-width: 0.8"/>
      </g>
     </g>
     <g id="text_13">
      <!-- 9.5 -->
      <g transform="translate(31.465625 117.014601) scale(0.1 -0.1)">
       <use xlink:href="#DejaVuSans-39"/>
       <use xlink:href="#DejaVuSans-2e" transform="translate(63.623047 0)"/>
       <use xlink:href="#DejaVuSans-35" transform="translate(95.410156 0)"/>
      </g>
     </g>
    </g>
    <g id="ytick_7">
     <g id="line2d_25">
      <path d="M 54.36875 66.663948 
L 781.2 66.663948 
" clip-path="url(#p069d611813)" style="fill: none; stroke: #b0b0b0; stroke-opacity: 0.3; stroke-width: 0.8; stroke-linecap: square"/>
     </g>
     <g id="line2d_26">
      <g>
       <use xlink:href="#m8003db1333" x="54.36875" y="66.663948" style="stroke: #000000; stroke-width: 0.8"/>
      </g>
     </g>
     <g id="text_14">
      <!-- 10.0 -->
      <g transform="translate(25.103125 70.463167) scale(0.1 -0.1)">
       <use xlink:href="#DejaVuSans-31"/>
       <use xlink:href="#DejaVuSans-30" transform="translate(63.623047 0)"/>
       <use xlink:href="#DejaVuSans-2e" transform="translate(127.246094 0)"/>
       <use xlink:href="#DejaVuSans-30" transform="translate(159.033203 0)"/>
      </g>
     </g>
    </g>
    <g id="text_15">
     <!-- Max cycles (billions) -->
     <g transform="translate(19.023437 258.158594) rotate(-90) scale(0.1 -0.1)">
      <defs>
       <path id="DejaVuSans-4d" d="M 628 4666 
L 1569 4666 
L 2759 1491 
L 3956 4666 
L 4897 4666 
L 4897 0 
L 4281 0 
L 4281 4097 
L 3078 897 
L 2444 897 
L 1241 4097 
L 1241 0 
L 628 0 
L 628 4666 
z
" transform="scale(0.015625)"/>
       <path id="DejaVuSans-61" d="M 2194 1759 
Q 1497 1759 1228 1600 
Q 959 1441 959 1056 
Q 959 750 1161 570 
Q 1363 391 1709 391 
Q 2188 391 2477 730 
Q 2766 1069 2766 1631 
L 2766 1759 
L 2194 1759 
z
M 3341 1997 
L 3341 0 
L 2766 0 
L 2766 531 
Q 2569 213 2275 61 
Q 1981 -91 1556 -91 
Q 1019 -91 701 211 
Q 384 513 384 1019 
Q 384 1609 779 1909 
Q 1175 2209 1959 2209 
L 2766 2209 
L 2766 2266 
Q 2766 2663 2505 2880 
Q 2244 3097 1772 3097 
Q 1472 3097 1187 3025 
Q 903 2953 641 2809 
L 641 3341 
Q 956 3463 1253 3523 
Q 1550 3584 1831 3584 
Q 2591 3584 2966 3190 
Q 3341 2797 3341 1997 
z
" transform="scale(0.015625)"/>
       <path id="DejaVuSans-78" d="M 3513 3500 
L 2247 1797 
L 3578 0 
L 2900 0 
L 1881 1375 
L 863 0 
L 184 0 
L 1544 1831 
L 300 3500 
L 978 3500 
L 1906 2253 
L 2834 3500 
L 3513 3500 
z
" transform="scale(0.015625)"/>
       <path id="DejaVuSans-20" transform="scale(0.015625)"/>
       <path id="DejaVuSans-63" d="M 3122 3366 
L 3122 2828 
Q 2878 2963 2633 3030 
Q 2388 3097 2138 3097 
Q 1578 3097 1268 2742 
Q 959 2388 959 1747 
Q 959 1106 1268 751 
Q 1578 397 2138 397 
Q 2388 397 2633 464 
Q 2878 531 3122 666 
L 3122 134 
Q 2881 22 2623 -34 
Q 2366 -91 2075 -91 
Q 1284 -91 818 406 
Q 353 903 353 1747 
Q 353 2603 823 3093 
Q 1294 3584 2113 3584 
Q 2378 3584 2631 3529 
Q 2884 3475 3122 3366 
z
" transform="scale(0.015625)"/>
       <path id="DejaVuSans-79" d="M 2059 -325 
Q 1816 -950 1584 -1140 
Q 1353 -1331 966 -1331 
L 506 -1331 
L 506 -850 
L 844 -850 
Q 1081 -850 1212 -737 
Q 1344 -625 1503 -206 
L 1606 56 
L 191 3500 
L 800 3500 
L 1894 763 
L 2988 3500 
L 3597 3500 
L 2059 -325 
z
" transform="scale(0.015625)"/>
       <path id="DejaVuSans-6c" d="M 603 4863 
L 1178 4863 
L 1178 0 
L 603 0 
L 603 4863 
z
" transform="scale(0.015625)"/>
       <path id="DejaVuSans-73" d="M 2834 3397 
L 2834 2853 
Q 2591 2978 2328 3040 
Q 2066 3103 1784 3103 
Q 1356 3103 1142 2972 
Q 928 2841 928 2578 
Q 928 2378 1081 2264 
Q 1234 2150 1697 2047 
L 1894 2003 
Q 2506 1872 2764 1633 
Q 3022 1394 3022 966 
Q 3022 478 2636 193 
Q 2250 -91 1575 -91 
Q 1294 -91 989 -36 
Q 684 19 347 128 
L 347 722 
Q 666 556 975 473 
Q 1284 391 1588 391 
Q 1994 391 2212 530 
Q 2431 669 2431 922 
Q 2431 1156 2273 1281 
Q 2116 1406 1581 1522 
L 1381 1569 
Q 847 1681 609 1914 
Q 372 2147 372 2553 
Q 372 3047 722 3315 
Q 1072 3584 1716 3584 
Q 2034 3584 2315 3537 
Q 2597 3491 2834 3397 
z
" transform="scale(0.015625)"/>
       <path id="DejaVuSans-28" d="M 1984 4856 
Q 1566 4138 1362 3434 
Q 1159 2731 1159 2009 
Q 1159 1288 1364 580 
Q 1569 -128 1984 -844 
L 1484 -844 
Q 1016 -109 783 600 
Q 550 1309 550 2009 
Q 550 2706 781 3412 
Q 1013 4119 1484 4856 
L 1984 4856 
z
" transform="scale(0.015625)"/>
       <path id="DejaVuSans-62" d="M 3116 1747 
Q 3116 2381 2855 2742 
Q 2594 3103 2138 3103 
Q 1681 3103 1420 2742 
Q 1159 2381 1159 1747 
Q 1159 1113 1420 752 
Q 1681 391 2138 391 
Q 2594 391 2855 752 
Q 3116 1113 3116 1747 
z
M 1159 2969 
Q 1341 3281 1617 3432 
Q 1894 3584 2278 3584 
Q 2916 3584 3314 3078 
Q 3713 2572 3713 1747 
Q 3713 922 3314 415 
Q 2916 -91 2278 -91 
Q 1894 -91 1617 61 
Q 1341 213 1159 525 
L 1159 0 
L 581 0 
L 581 4863 
L 1159 4863 
L 1159 2969 
z
" transform="scale(0.015625)"/>
       <path id="DejaVuSans-6f" d="M 1959 3097 
Q 1497 3097 1228 2736 
Q 959 2375 959 1747 
Q 959 1119 1226 758 
Q 1494 397 1959 397 
Q 2419 397 2687 759 
Q 2956 1122 2956 1747 
Q 2956 2369 2687 2733 
Q 2419 3097 1959 3097 
z
M 1959 3584 
Q 2709 3584 3137 3096 
Q 3566 2609 3566 1747 
Q 3566 888 3137 398 
Q 2709 -91 1959 -91 
Q 1206 -91 779 398 
Q 353 888 353 1747 
Q 353 2609 779 3096 
Q 1206 3584 1959 3584 
z
" transform="scale(0.015625)"/>
       <path id="DejaVuSans-6e" d="M 3513 2113 
L 3513 0 
L 2938 0 
L 2938 2094 
Q 2938 2591 2744 2837 
Q 2550 3084 2163 3084 
Q 1697 3084 1428 2787 
Q 1159 2491 1159 1978 
L 1159 0 
L 581 0 
L 581 3500 
L 1159 3500 
L 1159 2956 
Q 1366 3272 1645 3428 
Q 1925 3584 2291 3584 
Q 2894 3584 3203 3211 
Q 3513 2838 3513 2113 
z
" transform="scale(0.015625)"/>
       <path id="DejaVuSans-29" d="M 513 4856 
L 1013 4856 
Q 1481 4119 1714 3412 
Q 1947 2706 1947 2009 
Q 1947 1309 1714 600 
Q 1481 -109 1013 -844 
L 513 -844 
Q 928 -128 1133 580 
Q 1338 1288 1338 2009 
Q 1338 2731 1133 3434 
Q 928 4138 513 4856 
z
" transform="scale(0.015625)"/>
      </defs>
      <use xlink:href="#DejaVuSans-4d"/>
      <use xlink:href="#DejaVuSans-61" transform="translate(86.279297 0)"/>
      <use xlink:href="#DejaVuSans-78" transform="translate(147.558594 0)"/>
      <use xlink:href="#DejaVuSans-20" transform="translate(206.738281 0)"/>
      <use xlink:href="#DejaVuSans-63" transform="translate(238.525391 0)"/>
      <use xlink:href="#DejaVuSans-79" transform="translate(293.505859 0)"/>
      <use xlink:href="#DejaVuSans-63" transform="translate(352.685547 0)"/>
      <use xlink:href="#DejaVuSans-6c" transform="translate(407.666016 0)"/>
      <use xlink:href="#DejaVuSans-65" transform="translate(435.449219 0)"/>
      <use xlink:href="#DejaVuSans-73" transform="translate(496.972656 0)"/>
      <use xlink:href="#DejaVuSans-20" transform="translate(549.072266 0)"/>
      <use xlink:href="#DejaVuSans-28" transform="translate(580.859375 0)"/>
      <use xlink:href="#DejaVuSans-62" transform="translate(619.873047 0)"/>
      <use xlink:href="#DejaVuSans-69" transform="translate(683.349609 0)"/>
      <use xlink:href="#DejaVuSans-6c" transform="translate(711.132812 0)"/>
      <use xlink:href="#DejaVuSans-6c" transform="translate(738.916016 0)"/>
      <use xlink:href="#DejaVuSans-69" transform="translate(766.699219 0)"/>
      <use xlink:href="#DejaVuSans-6f" transform="translate(794.482422 0)"/>
      <use xlink:href="#DejaVuSans-6e" transform="translate(855.664062 0)"/>
      <use xlink:href="#DejaVuSans-73" transform="translate(919.042969 0)"/>
      <use xlink:href="#DejaVuSans-29" transform="translate(971.142578 0)"/>
     </g>
    </g>
   </g>
   <g id="line2d_27">
    <path d="M 87.406534 323.484781 
L 94.080834 340.188155 
L 100.755134 253.505869 
L 107.429434 207.688618 
L 114.103733 155.53879 
L 120.778033 117.404499 
L 127.452333 83.807369 
L 134.126633 42.331818 
L 140.800933 51.470308 
L 147.475232 51.395047 
L 154.149532 52.990558 
L 160.823832 51.929815 
L 167.498132 60.631891 
L 174.172432 69.001369 
L 180.846732 69.902722 
L 187.521031 83.866252 
L 194.195331 100.04962 
L 200.869631 113.157127 
L 207.543931 131.02663 
L 214.218231 144.741845 
L 220.89253 168.558531 
L 227.56683 179.862353 
L 234.24113 196.638156 
L 240.91543 211.834241 
L 247.58973 225.568607 
L 254.264029 221.962978 
L 260.938329 253.771875 
L 267.612629 284.033892 
L 274.286929 258.400978 
L 280.961229 265.944845 
L 287.635529 284.337853 
L 294.309828 106.118205 
L 300.984128 302.907367 
L 307.658428 287.325409 
L 314.332728 304.37038 
L 321.007028 294.01011 
L 327.681327 309.263146 
L 334.355627 306.14074 
L 341.029927 312.717363 
L 347.704227 301.272736 
L 354.378527 311.009607 
L 361.052827 307.296986 
L 367.727126 310.167348 
L 374.401426 294.891699 
L 381.075726 352.629373 
L 387.750026 303.358247 
L 394.424326 372.968182 
L 401.098625 240.418275 
L 407.772925 354.691695 
L 414.447225 306.024419 
L 421.121525 325.535492 
L 427.795825 303.618809 
L 434.470125 325.653006 
L 441.144424 313.38675 
L 447.818724 324.51914 
L 454.493024 304.108656 
L 461.167324 328.000581 
L 467.841624 312.436403 
L 474.515923 326.887637 
L 481.190223 305.246362 
L 487.864523 327.026145 
L 494.538823 313.823118 
L 501.213123 327.611441 
L 507.887423 110.405675 
L 514.561722 326.194488 
L 521.236022 312.452859 
L 527.910322 325.705634 
L 534.584622 306.572871 
L 541.258922 328.141185 
L 547.933221 314.014218 
L 554.607521 326.254426 
L 561.281821 306.452925 
L 567.956121 327.101894 
L 574.630421 313.468509 
L 581.304721 327.639795 
L 587.97902 305.521855 
L 594.65332 330.114291 
L 601.32762 313.101807 
L 608.00192 332.75995 
L 614.67622 301.159422 
L 621.350519 333.499399 
L 628.024819 306.125798 
L 634.699119 326.649274 
L 641.373419 294.829019 
L 648.047719 322.989987 
L 654.722018 304.061983 
L 661.396318 333.334112 
L 668.070618 280.478732 
L 674.744918 316.797257 
L 681.419218 303.52336 
L 688.093518 315.102901 
L 694.767817 280.96643 
L 701.442117 311.964999 
L 708.116417 304.676656 
L 714.790717 313.956934 
L 721.465017 251.58364 
L 728.139316 312.822024 
L 734.813616 303.323297 
L 741.487916 303.398351 
L 748.162216 278.200774 
" clip-path="url(#p069d611813)" style="fill: none; stroke: #1f77b4; stroke-width: 1.8; stroke-linecap: square"/>
    <defs>
     <path id="mfc389f63af" d="M 0 2 
C 0.530406 2 1.03916 1.789267 1.414214 1.414214 
C 1.789267 1.03916 2 0.530406 2 0 
C 2 -0.530406 1.789267 -1.03916 1.414214 -1.414214 
C 1.03916 -1.789267 0.530406 -2 0 -2 
C -0.530406 -2 -1.03916 -1.789267 -1.414214 -1.414214 
C -1.789267 -1.03916 -2 -0.530406 -2 0 
C -2 0.530406 -1.789267 1.03916 -1.414214 1.414214 
C -1.03916 1.789267 -0.530406 2 0 2 
z
" style="stroke: #1f77b4"/>
    </defs>
    <g clip-path="url(#p069d611813)">
     <use xlink:href="#mfc389f63af" x="87.406534" y="323.484781" style="fill: #1f77b4; stroke: #1f77b4"/>
     <use xlink:href="#mfc389f63af" x="94.080834" y="340.188155" style="fill: #1f77b4; stroke: #1f77b4"/>
     <use xlink:href="#mfc389f63af" x="100.755134" y="253.505869" style="fill: #1f77b4; stroke: #1f77b4"/>
     <use xlink:href="#mfc389f63af" x="107.429434" y="207.688618" style="fill: #1f77b4; stroke: #1f77b4"/>
     <use xlink:href="#mfc389f63af" x="114.103733" y="155.53879" style="fill: #1f77b4; stroke: #1f77b4"/>
     <use xlink:href="#mfc389f63af" x="120.778033" y="117.404499" style="fill: #1f77b4; stroke: #1f77b4"/>
     <use xlink:href="#mfc389f63af" x="127.452333" y="83.807369" style="fill: #1f77b4; stroke: #1f77b4"/>
     <use xlink:href="#mfc389f63af" x="134.126633" y="42.331818" style="fill: #1f77b4; stroke: #1f77b4"/>
     <use xlink:href="#mfc389f63af" x="140.800933" y="51.470308" style="fill: #1f77b4; stroke: #1f77b4"/>
     <use xlink:href="#mfc389f63af" x="147.475232" y="51.395047" style="fill: #1f77b4; stroke: #1f77b4"/>
     <use xlink:href="#mfc389f63af" x="154.149532" y="52.990558" style="fill: #1f77b4; stroke: #1f77b4"/>
     <use xlink:href="#mfc389f63af" x="160.823832" y="51.929815" style="fill: #1f77b4; stroke: #1f77b4"/>
     <use xlink:href="#mfc389f63af" x="167.498132" y="60.631891" style="fill: #1f77b4; stroke: #1f77b4"/>
     <use xlink:href="#mfc389f63af" x="174.172432" y="69.001369" style="fill: #1f77b4; stroke: #1f77b4"/>
     <use xlink:href="#mfc389f63af" x="180.846732" y="69.902722" style="fill: #1f77b4; stroke: #1f77b4"/>
     <use xlink:href="#mfc389f63af" x="187.521031" y="83.866252" style="fill: #1f77b4; stroke: #1f77b4"/>
     <use xlink:href="#mfc389f63af" x="194.195331" y="100.04962" style="fill: #1f77b4; stroke: #1f77b4"/>
     <use xlink:href="#mfc389f63af" x="200.869631" y="113.157127" style="fill: #1f77b4; stroke: #1f77b4"/>
     <use xlink:href="#mfc389f63af" x="207.543931" y="131.02663" style="fill: #1f77b4; stroke: #1f77b4"/>
     <use xlink:href="#mfc389f63af" x="214.218231" y="144.741845" style="fill: #1f77b4; stroke: #1f77b4"/>
     <use xlink:href="#mfc389f63af" x="220.89253" y="168.558531" style="fill: #1f77b4; stroke: #1f77b4"/>
     <use xlink:href="#mfc389f63af" x="227.56683" y="179.862353" style="fill: #1f77b4; stroke: #1f77b4"/>
     <use xlink:href="#mfc389f63af" x="234.24113" y="196.638156" style="fill: #1f77b4; stroke: #1f77b4"/>
     <use xlink:href="#mfc389f63af" x="240.91543" y="211.834241" style="fill: #1f77b4; stroke: #1f77b4"/>
     <use xlink:href="#mfc389f63af" x="247.58973" y="225.568607" style="fill: #1f77b4; stroke: #1f77b4"/>
     <use xlink:href="#mfc389f63af" x="254.264029" y="221.962978" style="fill: #1f77b4; stroke: #1f77b4"/>
     <use xlink:href="#mfc389f63af" x="260.938329" y="253.771875" style="fill: #1f77b4; stroke: #1f77b4"/>
     <use xlink:href="#mfc389f63af" x="267.612629" y="284.033892" style="fill: #1f77b4; stroke: #1f77b4"/>
     <use xlink:href="#mfc389f63af" x="274.286929" y="258.400978" style="fill: #1f77b4; stroke: #1f77b4"/>
     <use xlink:href="#mfc389f63af" x="280.961229" y="265.944845" style="fill: #1f77b4; stroke: #1f77b4"/>
     <use xlink:href="#mfc389f63af" x="287.635529" y="284.337853" style="fill: #1f77b4; stroke: #1f77b4"/>
     <use xlink:href="#mfc389f63af" x="294.309828" y="106.118205" style="fill: #1f77b4; stroke: #1f77b4"/>
     <use xlink:href="#mfc389f63af" x="300.984128" y="302.907367" style="fill: #1f77b4; stroke: #1f77b4"/>
     <use xlink:href="#mfc389f63af" x="307.658428" y="287.325409" style="fill: #1f77b4; stroke: #1f77b4"/>
     <use xlink:href="#mfc389f63af" x="314.332728" y="304.37038" style="fill: #1f77b4; stroke: #1f77b4"/>
     <use xlink:href="#mfc389f63af" x="321.007028" y="294.01011" style="fill: #1f77b4; stroke: #1f77b4"/>
     <use xlink:href="#mfc389f63af" x="327.681327" y="309.263146" style="fill: #1f77b4; stroke: #1f77b4"/>
     <use xlink:href="#mfc389f63af" x="334.355627" y="306.14074" style="fill: #1f77b4; stroke: #1f77b4"/>
     <use xlink:href="#mfc389f63af" x="341.029927" y="312.717363" style="fill: #1f77b4; stroke: #1f77b4"/>
     <use xlink:href="#mfc389f63af" x="347.704227" y="301.272736" style="fill: #1f77b4; stroke: #1f77b4"/>
     <use xlink:href="#mfc389f63af" x="354.378527" y="311.009607" style="fill: #1f77b4; stroke: #1f77b4"/>
     <use xlink:href="#mfc389f63af" x="361.052827" y="307.296986" style="fill: #1f77b4; stroke: #1f77b4"/>
     <use xlink:href="#mfc389f63af" x="367.727126" y="310.167348" style="fill: #1f77b4; stroke: #1f77b4"/>
     <use xlink:href="#mfc389f63af" x="374.401426" y="294.891699" style="fill: #1f77b4; stroke: #1f77b4"/>
     <use xlink:href="#mfc389f63af" x="381.075726" y="352.629373" style="fill: #1f77b4; stroke: #1f77b4"/>
     <use xlink:href="#mfc389f63af" x="387.750026" y="303.358247" style="fill: #1f77b4; stroke: #1f77b4"/>
     <use xlink:href="#mfc389f63af" x="394.424326" y="372.968182" style="fill: #1f77b4; stroke: #1f77b4"/>
     <use xlink:href="#mfc389f63af" x="401.098625" y="240.418275" style="fill: #1f77b4; stroke: #1f77b4"/>
     <use xlink:href="#mfc389f63af" x="407.772925" y="354.691695" style="fill: #1f77b4; stroke: #1f77b4"/>
     <use xlink:href="#mfc389f63af" x="414.447225" y="306.024419" style="fill: #1f77b4; stroke: #1f77b4"/>
     <use xlink:href="#mfc389f63af" x="421.121525" y="325.535492" style="fill: #1f77b4; stroke: #1f77b4"/>
     <use xlink:href="#mfc389f63af" x="427.795825" y="303.618809" style="fill: #1f77b4; stroke: #1f77b4"/>
     <use xlink:href="#mfc389f63af" x="434.470125" y="325.653006" style="fill: #1f77b4; stroke: #1f77b4"/>
     <use xlink:href="#mfc389f63af" x="441.144424" y="313.38675" style="fill: #1f77b4; stroke: #1f77b4"/>
     <use xlink:href="#mfc389f63af" x="447.818724" y="324.51914" style="fill: #1f77b4; stroke: #1f77b4"/>
     <use xlink:href="#mfc389f63af" x="454.493024" y="304.108656" style="fill: #1f77b4; stroke: #1f77b4"/>
     <use xlink:href="#mfc389f63af" x="461.167324" y="328.000581" style="fill: #1f77b4; stroke: #1f77b4"/>
     <use xlink:href="#mfc389f63af" x="467.841624" y="312.436403" style="fill: #1f77b4; stroke: #1f77b4"/>
     <use xlink:href="#mfc389f63af" x="474.515923" y="326.887637" style="fill: #1f77b4; stroke: #1f77b4"/>
     <use xlink:href="#mfc389f63af" x="481.190223" y="305.246362" style="fill: #1f77b4; stroke: #1f77b4"/>
     <use xlink:href="#mfc389f63af" x="487.864523" y="327.026145" style="fill: #1f77b4; stroke: #1f77b4"/>
     <use xlink:href="#mfc389f63af" x="494.538823" y="313.823118" style="fill: #1f77b4; stroke: #1f77b4"/>
     <use xlink:href="#mfc389f63af" x="501.213123" y="327.611441" style="fill: #1f77b4; stroke: #1f77b4"/>
     <use xlink:href="#mfc389f63af" x="507.887423" y="110.405675" style="fill: #1f77b4; stroke: #1f77b4"/>
     <use xlink:href="#mfc389f63af" x="514.561722" y="326.194488" style="fill: #1f77b4; stroke: #1f77b4"/>
     <use xlink:href="#mfc389f63af" x="521.236022" y="312.452859" style="fill: #1f77b4; stroke: #1f77b4"/>
     <use xlink:href="#mfc389f63af" x="527.910322" y="325.705634" style="fill: #1f77b4; stroke: #1f77b4"/>
     <use xlink:href="#mfc389f63af" x="534.584622" y="306.572871" style="fill: #1f77b4; stroke: #1f77b4"/>
     <use xlink:href="#mfc389f63af" x="541.258922" y="328.141185" style="fill: #1f77b4; stroke: #1f77b4"/>
     <use xlink:href="#mfc389f63af" x="547.933221" y="314.014218" style="fill: #1f77b4; stroke: #1f77b4"/>
     <use xlink:href="#mfc389f63af" x="554.607521" y="326.254426" style="fill: #1f77b4; stroke: #1f77b4"/>
     <use xlink:href="#mfc389f63af" x="561.281821" y="306.452925" style="fill: #1f77b4; stroke: #1f77b4"/>
     <use xlink:href="#mfc389f63af" x="567.956121" y="327.101894" style="fill: #1f77b4; stroke: #1f77b4"/>
     <use xlink:href="#mfc389f63af" x="574.630421" y="313.468509" style="fill: #1f77b4; stroke: #1f77b4"/>
     <use xlink:href="#mfc389f63af" x="581.304721" y="327.639795" style="fill: #1f77b4; stroke: #1f77b4"/>
     <use xlink:href="#mfc389f63af" x="587.97902" y="305.521855" style="fill: #1f77b4; stroke: #1f77b4"/>
     <use xlink:href="#mfc389f63af" x="594.65332" y="330.114291" style="fill: #1f77b4; stroke: #1f77b4"/>
     <use xlink:href="#mfc389f63af" x="601.32762" y="313.101807" style="fill: #1f77b4; stroke: #1f77b4"/>
     <use xlink:href="#mfc389f63af" x="608.00192" y="332.75995" style="fill: #1f77b4; stroke: #1f77b4"/>
     <use xlink:href="#mfc389f63af" x="614.67622" y="301.159422" style="fill: #1f77b4; stroke: #1f77b4"/>
     <use xlink:href="#mfc389f63af" x="621.350519" y="333.499399" style="fill: #1f77b4; stroke: #1f77b4"/>
     <use xlink:href="#mfc389f63af" x="628.024819" y="306.125798" style="fill: #1f77b4; stroke: #1f77b4"/>
     <use xlink:href="#mfc389f63af" x="634.699119" y="326.649274" style="fill: #1f77b4; stroke: #1f77b4"/>
     <use xlink:href="#mfc389f63af" x="641.373419" y="294.829019" style="fill: #1f77b4; stroke: #1f77b4"/>
     <use xlink:href="#mfc389f63af" x="648.047719" y="322.989987" style="fill: #1f77b4; stroke: #1f77b4"/>
     <use xlink:href="#mfc389f63af" x="654.722018" y="304.061983" style="fill: #1f77b4; stroke: #1f77b4"/>
     <use xlink:href="#mfc389f63af" x="661.396318" y="333.334112" style="fill: #1f77b4; stroke: #1f77b4"/>
     <use xlink:href="#mfc389f63af" x="668.070618" y="280.478732" style="fill: #1f77b4; stroke: #1f77b4"/>
     <use xlink:href="#mfc389f63af" x="674.744918" y="316.797257" style="fill: #1f77b4; stroke: #1f77b4"/>
     <use xlink:href="#mfc389f63af" x="681.419218" y="303.52336" style="fill: #1f77b4; stroke: #1f77b4"/>
     <use xlink:href="#mfc389f63af" x="688.093518" y="315.102901" style="fill: #1f77b4; stroke: #1f77b4"/>
     <use xlink:href="#mfc389f63af" x="694.767817" y="280.96643" style="fill: #1f77b4; stroke: #1f77b4"/>
     <use xlink:href="#mfc389f63af" x="701.442117" y="311.964999" style="fill: #1f77b4; stroke: #1f77b4"/>
     <use xlink:href="#mfc389f63af" x="708.116417" y="304.676656" style="fill: #1f77b4; stroke: #1f77b4"/>
     <use xlink:href="#mfc389f63af" x="714.790717" y="313.956934" style="fill: #1f77b4; stroke: #1f77b4"/>
     <use xlink:href="#mfc389f63af" x="721.465017" y="251.58364" style="fill: #1f77b4; stroke: #1f77b4"/>
     <use xlink:href="#mfc389f63af" x="728.139316" y="312.822024" style="fill: #1f77b4; stroke: #1f77b4"/>
     <use xlink:href="#mfc389f63af" x="734.813616" y="303.323297" style="fill: #1f77b4; stroke: #1f77b4"/>
     <use xlink:href="#mfc389f63af" x="741.487916" y="303.398351" style="fill: #1f77b4; stroke: #1f77b4"/>
     <use xlink:href="#mfc389f63af" x="748.162216" y="278.200774" style="fill: #1f77b4; stroke: #1f77b4"/>
    </g>
   </g>
   <g id="patch_3">
    <path d="M 54.36875 389.5 
L 54.36875 25.8 
" style="fill: none; stroke: #000000; stroke-width: 0.8; stroke-linejoin: miter; stroke-linecap: square"/>
   </g>
   <g id="patch_4">
    <path d="M 781.2 389.5 
L 781.2 25.8 
" style="fill: none; stroke: #000000; stroke-width: 0.8; stroke-linejoin: miter; stroke-linecap: square"/>
   </g>
   <g id="patch_5">
    <path d="M 54.36875 389.5 
L 781.2 389.5 
" style="fill: none; stroke: #000000; stroke-width: 0.8; stroke-linejoin: miter; stroke-linecap: square"/>
   </g>
   <g id="patch_6">
    <path d="M 54.36875 25.8 
L 781.2 25.8 
" style="fill: none; stroke: #000000; stroke-width: 0.8; stroke-linejoin: miter; stroke-linecap: square"/>
   </g>
   <g id="text_16">
    <!-- Max Cycles by Stride -->
    <g transform="translate(354.978437 19.8) scale(0.12 -0.12)">
     <defs>
      <path id="DejaVuSans-43" d="M 4122 4306 
L 4122 3641 
Q 3803 3938 3442 4084 
Q 3081 4231 2675 4231 
Q 1875 4231 1450 3742 
Q 1025 3253 1025 2328 
Q 1025 1406 1450 917 
Q 1875 428 2675 428 
Q 3081 428 3442 575 
Q 3803 722 4122 1019 
L 4122 359 
Q 3791 134 3420 21 
Q 3050 -91 2638 -91 
Q 1578 -91 968 557 
Q 359 1206 359 2328 
Q 359 3453 968 4101 
Q 1578 4750 2638 4750 
Q 3056 4750 3426 4639 
Q 3797 4528 4122 4306 
z
" transform="scale(0.015625)"/>
     </defs>
     <use xlink:href="#DejaVuSans-4d"/>
     <use xlink:href="#DejaVuSans-61" transform="translate(86.279297 0)"/>
     <use xlink:href="#DejaVuSans-78" transform="translate(147.558594 0)"/>
     <use xlink:href="#DejaVuSans-20" transform="translate(206.738281 0)"/>
     <use xlink:href="#DejaVuSans-43" transform="translate(238.525391 0)"/>
     <use xlink:href="#DejaVuSans-79" transform="translate(308.349609 0)"/>
     <use xlink:href="#DejaVuSans-63" transform="translate(367.529297 0)"/>
     <use xlink:href="#DejaVuSans-6c" transform="translate(422.509766 0)"/>
     <use xlink:href="#DejaVuSans-65" transform="translate(450.292969 0)"/>
     <use xlink:href="#DejaVuSans-73" transform="translate(511.816406 0)"/>
     <use xlink:href="#DejaVuSans-20" transform="translate(563.916016 0)"/>
     <use xlink:href="#DejaVuSans-62" transform="translate(595.703125 0)"/>
     <use xlink:href="#DejaVuSans-79" transform="translate(659.179688 0)"/>
     <use xlink:href="#DejaVuSans-20" transform="translate(718.359375 0)"/>
     <use xlink:href="#DejaVuSans-53" transform="translate(750.146484 0)"/>
     <use xlink:href="#DejaVuSans-74" transform="translate(813.623047 0)"/>
     <use xlink:href="#DejaVuSans-72" transform="translate(852.832031 0)"/>
     <use xlink:href="#DejaVuSans-69" transform="translate(893.945312 0)"/>
     <use xlink:href="#DejaVuSans-64" transform="translate(921.728516 0)"/>
     <use xlink:href="#DejaVuSans-65" transform="translate(985.205078 0)"/>
    </g>
   </g>
  </g>
 </g>
 <defs>
  <clipPath id="p069d611813">
   <rect x="54.36875" y="25.8" width="726.83125" height="363.7"/>
  </clipPath>
 </defs>

<g id="coordinate-overlay">
  <defs>
    <clipPath id="coordinate-clip">
      <rect x="54.368750" y="25.800000" width="726.831250" height="363.700000"/>
    </clipPath>
  </defs>
  <style>
    #coordinate-hit-area { cursor: crosshair; }
    #coordinate-crosshair { display: none; pointer-events: none; }
    #coordinate-crosshair line { stroke: #dc2626; stroke-width: 0.9; stroke-opacity: 0.8; }
    #coordinate-readout { pointer-events: none; }
    #coordinate-readout-bg { fill: #ffffff; fill-opacity: 0.92; stroke: #d1d5db; stroke-width: 0.5; }
    #coordinate-readout-text { fill: #111827; font: 11px ui-monospace, SFMono-Regular, Menlo, Consolas, monospace; }
  </style>
  <g id="coordinate-crosshair" clip-path="url(#coordinate-clip)">
    <line id="coordinate-vline" x1="54.368750" y1="25.800000" x2="54.368750" y2="389.500000"/>
    <line id="coordinate-hline" x1="54.368750" y1="25.800000" x2="781.200000" y2="25.800000"/>
  </g>
  <g id="coordinate-readout">
    <rect id="coordinate-readout-bg" x="62.368750" y="33.800000" width="252" height="22" rx="4"/>
    <text id="coordinate-readout-text" x="68.368750" y="48.800000">Move mouse over plot</text>
  </g>
  <rect id="coordinate-hit-area" x="54.368750" y="25.800000" width="726.831250" height="363.700000" fill="transparent" pointer-events="all"/>
  <script type="application/ecmascript"><![CDATA[
(function () {
  const metadata = {"axes": {"left": 54.36875, "right": 781.1999999999999, "top": 25.799999999999955, "bottom": 389.5}, "xlim": [-3.95, 104.95], "ylim": [6532480060.5, 10438911809.5]};
  const svg = document.documentElement;
  const hitArea = document.getElementById("coordinate-hit-area");
  const crosshair = document.getElementById("coordinate-crosshair");
  const vline = document.getElementById("coordinate-vline");
  const hline = document.getElementById("coordinate-hline");
  const readoutBg = document.getElementById("coordinate-readout-bg");
  const readoutText = document.getElementById("coordinate-readout-text");
  const svgPoint = svg.createSVGPoint();

  function eventPoint(event) {
    const screenMatrix = svg.getScreenCTM();
    if (!screenMatrix) {
      return null;
    }
    svgPoint.x = event.clientX;
    svgPoint.y = event.clientY;
    return svgPoint.matrixTransform(screenMatrix.inverse());
  }

  function setReadout(text) {
    readoutText.textContent = text;
    const bbox = readoutText.getBBox();
    readoutBg.setAttribute("width", Math.ceil(bbox.width + 12));
  }

  function formatCycles(cycles) {
    return Math.round(cycles).toLocaleString() + " cycles (" + (cycles / 1e9).toFixed(3) + "B)";
  }

  function showCrosshair(point) {
    crosshair.style.display = "inline";
    vline.setAttribute("x1", point.x);
    vline.setAttribute("x2", point.x);
    hline.setAttribute("y1", point.y);
    hline.setAttribute("y2", point.y);
  }

  function hideCrosshair() {
    crosshair.style.display = "none";
  }

  hitArea.addEventListener("mousemove", function (event) {
    const point = eventPoint(event);
    if (!point) {
      return;
    }

    const axes = metadata.axes;
    const xFraction = (point.x - axes.left) / (axes.right - axes.left);
    const yFraction = (point.y - axes.top) / (axes.bottom - axes.top);
    const stride = metadata.xlim[0] + xFraction * (metadata.xlim[1] - metadata.xlim[0]);
    const cycles = metadata.ylim[1] - yFraction * (metadata.ylim[1] - metadata.ylim[0]);

    showCrosshair(point);
    setReadout("stride=" + stride.toFixed(2) + "  cycles=" + formatCycles(cycles));
  });

  hitArea.addEventListener("mouseleave", function () {
    hideCrosshair();
    setReadout("Move mouse over plot");
  });

  setReadout("Move mouse over plot");
})();
  ]]></script>
</g>
</svg>
