<?xml version="1.0" encoding="utf-8" standalone="no"?>
<!DOCTYPE svg PUBLIC "-//W3C//DTD SVG 1.1//EN"
  "http://www.w3.org/Graphics/SVG/1.1/DTD/svg11.dtd">
<svg xmlns:xlink="http://www.w3.org/1999/xlink" width="792pt" height="432pt" viewBox="0 0 792 432" xmlns="http://www.w3.org/2000/svg" version="1.1">
 <metadata>
  <rdf:RDF xmlns:dc="http://purl.org/dc/elements/1.1/" xmlns:cc="http://creativecommons.org/ns#" xmlns:rdf="http://www.w3.org/1999/02/22-rdf-syntax-ns#">
   <cc:Work>
    <dc:type rdf:resource="http://purl.org/dc/dcmitype/StillImage"/>
    <dc:date>2026-06-21T22:04:07.013834</dc:date>
    <dc:format>image/svg+xml</dc:format>
    <dc:creator>
     <cc:Agent>
      <dc:title>Matplotlib v3.10.9, https://matplotlib.org/</dc:title>
     </cc:Agent>
    </dc:creator>
   </cc:Work>
  </rdf:RDF>
 </metadata>
 <defs>
  <style type="text/css">*{stroke-linejoin: round; stroke-linecap: butt}</style>
 </defs>
 <g id="figure_1">
  <g id="patch_1">
   <path d="M 0 432 
L 792 432 
L 792 0 
L 0 0 
z
" style="fill: #ffffff"/>
  </g>
  <g id="axes_1">
   <g id="patch_2">
    <path d="M 48.0125 389.5 
L 781.2 389.5 
L 781.2 25.8 
L 48.0125 25.8 
z
" style="fill: #ffffff"/>
   </g>
   <g id="matplotlib.axis_1">
    <g id="xtick_1">
     <g id="line2d_1">
      <path d="M 74.606537 389.5 
L 74.606537 25.8 
" clip-path="url(#pa1d6130d6e)" style="fill: none; stroke: #b0b0b0; stroke-opacity: 0.3; stroke-width: 0.8; stroke-linecap: square"/>
     </g>
     <g id="line2d_2">
      <defs>
       <path id="m52b5d1dc58" d="M 0 0 
L 0 3.5 
" style="stroke: #000000; stroke-width: 0.8"/>
      </defs>
      <g>
       <use xlink:href="#m52b5d1dc58" x="74.606537" y="389.5" style="stroke: #000000; stroke-width: 0.8"/>
      </g>
     </g>
     <g id="text_1">
      <!-- 0 -->
      <g transform="translate(71.425287 404.098437) scale(0.1 -0.1)">
       <defs>
        <path id="DejaVuSans-30" d="M 2034 4250 
Q 1547 4250 1301 3770 
Q 1056 3291 1056 2328 
Q 1056 1369 1301 889 
Q 1547 409 2034 409 
Q 2525 409 2770 889 
Q 3016 1369 3016 2328 
Q 3016 3291 2770 3770 
Q 2525 4250 2034 4250 
z
M 2034 4750 
Q 2819 4750 3233 4129 
Q 3647 3509 3647 2328 
Q 3647 1150 3233 529 
Q 2819 -91 2034 -91 
Q 1250 -91 836 529 
Q 422 1150 422 2328 
Q 422 3509 836 4129 
Q 1250 4750 2034 4750 
z
" transform="scale(0.015625)"/>
       </defs>
       <use xlink:href="#DejaVuSans-30"/>
      </g>
     </g>
    </g>
    <g id="xtick_2">
     <g id="line2d_3">
      <path d="M 209.259889 389.5 
L 209.259889 25.8 
" clip-path="url(#pa1d6130d6e)" style="fill: none; stroke: #b0b0b0; stroke-opacity: 0.3; stroke-width: 0.8; stroke-linecap: square"/>
     </g>
     <g id="line2d_4">
      <g>
       <use xlink:href="#m52b5d1dc58" x="209.259889" y="389.5" style="stroke: #000000; stroke-width: 0.8"/>
      </g>
     </g>
     <g id="text_2">
      <!-- 20 -->
      <g transform="translate(202.897389 404.098437) scale(0.1 -0.1)">
       <defs>
        <path id="DejaVuSans-32" d="M 1228 531 
L 3431 531 
L 3431 0 
L 469 0 
L 469 531 
Q 828 903 1448 1529 
Q 2069 2156 2228 2338 
Q 2531 2678 2651 2914 
Q 2772 3150 2772 3378 
Q 2772 3750 2511 3984 
Q 2250 4219 1831 4219 
Q 1534 4219 1204 4116 
Q 875 4013 500 3803 
L 500 4441 
Q 881 4594 1212 4672 
Q 1544 4750 1819 4750 
Q 2544 4750 2975 4387 
Q 3406 4025 3406 3419 
Q 3406 3131 3298 2873 
Q 3191 2616 2906 2266 
Q 2828 2175 2409 1742 
Q 1991 1309 1228 531 
z
" transform="scale(0.015625)"/>
       </defs>
       <use xlink:href="#DejaVuSans-32"/>
       <use xlink:href="#DejaVuSans-30" transform="translate(63.623047 0)"/>
      </g>
     </g>
    </g>
    <g id="xtick_3">
     <g id="line2d_5">
      <path d="M 343.91324 389.5 
L 343.91324 25.8 
" clip-path="url(#pa1d6130d6e)" style="fill: none; stroke: #b0b0b0; stroke-opacity: 0.3; stroke-width: 0.8; stroke-linecap: square"/>
     </g>
     <g id="line2d_6">
      <g>
       <use xlink:href="#m52b5d1dc58" x="343.91324" y="389.5" style="stroke: #000000; stroke-width: 0.8"/>
      </g>
     </g>
     <g id="text_3">
      <!-- 40 -->
      <g transform="translate(337.55074 404.098437) scale(0.1 -0.1)">
       <defs>
        <path id="DejaVuSans-34" d="M 2419 4116 
L 825 1625 
L 2419 1625 
L 2419 4116 
z
M 2253 4666 
L 3047 4666 
L 3047 1625 
L 3713 1625 
L 3713 1100 
L 3047 1100 
L 3047 0 
L 2419 0 
L 2419 1100 
L 313 1100 
L 313 1709 
L 2253 4666 
z
" transform="scale(0.015625)"/>
       </defs>
       <use xlink:href="#DejaVuSans-34"/>
       <use xlink:href="#DejaVuSans-30" transform="translate(63.623047 0)"/>
      </g>
     </g>
    </g>
    <g id="xtick_4">
     <g id="line2d_7">
      <path d="M 478.566592 389.5 
L 478.566592 25.8 
" clip-path="url(#pa1d6130d6e)" style="fill: none; stroke: #b0b0b0; stroke-opacity: 0.3; stroke-width: 0.8; stroke-linecap: square"/>
     </g>
     <g id="line2d_8">
      <g>
       <use xlink:href="#m52b5d1dc58" x="478.566592" y="389.5" style="stroke: #000000; stroke-width: 0.8"/>
      </g>
     </g>
     <g id="text_4">
      <!-- 60 -->
      <g transform="translate(472.204092 404.098437) scale(0.1 -0.1)">
       <defs>
        <path id="DejaVuSans-36" d="M 2113 2584 
Q 1688 2584 1439 2293 
Q 1191 2003 1191 1497 
Q 1191 994 1439 701 
Q 1688 409 2113 409 
Q 2538 409 2786 701 
Q 3034 994 3034 1497 
Q 3034 2003 2786 2293 
Q 2538 2584 2113 2584 
z
M 3366 4563 
L 3366 3988 
Q 3128 4100 2886 4159 
Q 2644 4219 2406 4219 
Q 1781 4219 1451 3797 
Q 1122 3375 1075 2522 
Q 1259 2794 1537 2939 
Q 1816 3084 2150 3084 
Q 2853 3084 3261 2657 
Q 3669 2231 3669 1497 
Q 3669 778 3244 343 
Q 2819 -91 2113 -91 
Q 1303 -91 875 529 
Q 447 1150 447 2328 
Q 447 3434 972 4092 
Q 1497 4750 2381 4750 
Q 2619 4750 2861 4703 
Q 3103 4656 3366 4563 
z
" transform="scale(0.015625)"/>
       </defs>
       <use xlink:href="#DejaVuSans-36"/>
       <use xlink:href="#DejaVuSans-30" transform="translate(63.623047 0)"/>
      </g>
     </g>
    </g>
    <g id="xtick_5">
     <g id="line2d_9">
      <path d="M 613.219944 389.5 
L 613.219944 25.8 
" clip-path="url(#pa1d6130d6e)" style="fill: none; stroke: #b0b0b0; stroke-opacity: 0.3; stroke-width: 0.8; stroke-linecap: square"/>
     </g>
     <g id="line2d_10">
      <g>
       <use xlink:href="#m52b5d1dc58" x="613.219944" y="389.5" style="stroke: #000000; stroke-width: 0.8"/>
      </g>
     </g>
     <g id="text_5">
      <!-- 80 -->
      <g transform="translate(606.857444 404.098437) scale(0.1 -0.1)">
       <defs>
        <path id="DejaVuSans-38" d="M 2034 2216 
Q 1584 2216 1326 1975 
Q 1069 1734 1069 1313 
Q 1069 891 1326 650 
Q 1584 409 2034 409 
Q 2484 409 2743 651 
Q 3003 894 3003 1313 
Q 3003 1734 2745 1975 
Q 2488 2216 2034 2216 
z
M 1403 2484 
Q 997 2584 770 2862 
Q 544 3141 544 3541 
Q 544 4100 942 4425 
Q 1341 4750 2034 4750 
Q 2731 4750 3128 4425 
Q 3525 4100 3525 3541 
Q 3525 3141 3298 2862 
Q 3072 2584 2669 2484 
Q 3125 2378 3379 2068 
Q 3634 1759 3634 1313 
Q 3634 634 3220 271 
Q 2806 -91 2034 -91 
Q 1263 -91 848 271 
Q 434 634 434 1313 
Q 434 1759 690 2068 
Q 947 2378 1403 2484 
z
M 1172 3481 
Q 1172 3119 1398 2916 
Q 1625 2713 2034 2713 
Q 2441 2713 2670 2916 
Q 2900 3119 2900 3481 
Q 2900 3844 2670 4047 
Q 2441 4250 2034 4250 
Q 1625 4250 1398 4047 
Q 1172 3844 1172 3481 
z
" transform="scale(0.015625)"/>
       </defs>
       <use xlink:href="#DejaVuSans-38"/>
       <use xlink:href="#DejaVuSans-30" transform="translate(63.623047 0)"/>
      </g>
     </g>
    </g>
    <g id="xtick_6">
     <g id="line2d_11">
      <path d="M 747.873295 389.5 
L 747.873295 25.8 
" clip-path="url(#pa1d6130d6e)" style="fill: none; stroke: #b0b0b0; stroke-opacity: 0.3; stroke-width: 0.8; stroke-linecap: square"/>
     </g>
     <g id="line2d_12">
      <g>
       <use xlink:href="#m52b5d1dc58" x="747.873295" y="389.5" style="stroke: #000000; stroke-width: 0.8"/>
      </g>
     </g>
     <g id="text_6">
      <!-- 100 -->
      <g transform="translate(738.329545 404.098437) scale(0.1 -0.1)">
       <defs>
        <path id="DejaVuSans-31" d="M 794 531 
L 1825 531 
L 1825 4091 
L 703 3866 
L 703 4441 
L 1819 4666 
L 2450 4666 
L 2450 531 
L 3481 531 
L 3481 0 
L 794 0 
L 794 531 
z
" transform="scale(0.015625)"/>
       </defs>
       <use xlink:href="#DejaVuSans-31"/>
       <use xlink:href="#DejaVuSans-30" transform="translate(63.623047 0)"/>
       <use xlink:href="#DejaVuSans-30" transform="translate(127.246094 0)"/>
      </g>
     </g>
    </g>
    <g id="text_7">
     <!-- Stride -->
     <g transform="translate(399.776562 417.776563) scale(0.1 -0.1)">
      <defs>
       <path id="DejaVuSans-53" d="M 3425 4513 
L 3425 3897 
Q 3066 4069 2747 4153 
Q 2428 4238 2131 4238 
Q 1616 4238 1336 4038 
Q 1056 3838 1056 3469 
Q 1056 3159 1242 3001 
Q 1428 2844 1947 2747 
L 2328 2669 
Q 3034 2534 3370 2195 
Q 3706 1856 3706 1288 
Q 3706 609 3251 259 
Q 2797 -91 1919 -91 
Q 1588 -91 1214 -16 
Q 841 59 441 206 
L 441 856 
Q 825 641 1194 531 
Q 1563 422 1919 422 
Q 2459 422 2753 634 
Q 3047 847 3047 1241 
Q 3047 1584 2836 1778 
Q 2625 1972 2144 2069 
L 1759 2144 
Q 1053 2284 737 2584 
Q 422 2884 422 3419 
Q 422 4038 858 4394 
Q 1294 4750 2059 4750 
Q 2388 4750 2728 4690 
Q 3069 4631 3425 4513 
z
" transform="scale(0.015625)"/>
       <path id="DejaVuSans-74" d="M 1172 4494 
L 1172 3500 
L 2356 3500 
L 2356 3053 
L 1172 3053 
L 1172 1153 
Q 1172 725 1289 603 
Q 1406 481 1766 481 
L 2356 481 
L 2356 0 
L 1766 0 
Q 1100 0 847 248 
Q 594 497 594 1153 
L 594 3053 
L 172 3053 
L 172 3500 
L 594 3500 
L 594 4494 
L 1172 4494 
z
" transform="scale(0.015625)"/>
       <path id="DejaVuSans-72" d="M 2631 2963 
Q 2534 3019 2420 3045 
Q 2306 3072 2169 3072 
Q 1681 3072 1420 2755 
Q 1159 2438 1159 1844 
L 1159 0 
L 581 0 
L 581 3500 
L 1159 3500 
L 1159 2956 
Q 1341 3275 1631 3429 
Q 1922 3584 2338 3584 
Q 2397 3584 2469 3576 
Q 2541 3569 2628 3553 
L 2631 2963 
z
" transform="scale(0.015625)"/>
       <path id="DejaVuSans-69" d="M 603 3500 
L 1178 3500 
L 1178 0 
L 603 0 
L 603 3500 
z
M 603 4863 
L 1178 4863 
L 1178 4134 
L 603 4134 
L 603 4863 
z
" transform="scale(0.015625)"/>
       <path id="DejaVuSans-64" d="M 2906 2969 
L 2906 4863 
L 3481 4863 
L 3481 0 
L 2906 0 
L 2906 525 
Q 2725 213 2448 61 
Q 2172 -91 1784 -91 
Q 1150 -91 751 415 
Q 353 922 353 1747 
Q 353 2572 751 3078 
Q 1150 3584 1784 3584 
Q 2172 3584 2448 3432 
Q 2725 3281 2906 2969 
z
M 947 1747 
Q 947 1113 1208 752 
Q 1469 391 1925 391 
Q 2381 391 2643 752 
Q 2906 1113 2906 1747 
Q 2906 2381 2643 2742 
Q 2381 3103 1925 3103 
Q 1469 3103 1208 2742 
Q 947 2381 947 1747 
z
" transform="scale(0.015625)"/>
       <path id="DejaVuSans-65" d="M 3597 1894 
L 3597 1613 
L 953 1613 
Q 991 1019 1311 708 
Q 1631 397 2203 397 
Q 2534 397 2845 478 
Q 3156 559 3463 722 
L 3463 178 
Q 3153 47 2828 -22 
Q 2503 -91 2169 -91 
Q 1331 -91 842 396 
Q 353 884 353 1716 
Q 353 2575 817 3079 
Q 1281 3584 2069 3584 
Q 2775 3584 3186 3129 
Q 3597 2675 3597 1894 
z
M 3022 2063 
Q 3016 2534 2758 2815 
Q 2500 3097 2075 3097 
Q 1594 3097 1305 2825 
Q 1016 2553 972 2059 
L 3022 2063 
z
" transform="scale(0.015625)"/>
      </defs>
      <use xlink:href="#DejaVuSans-53"/>
      <use xlink:href="#DejaVuSans-74" transform="translate(63.476562 0)"/>
      <use xlink:href="#DejaVuSans-72" transform="translate(102.685547 0)"/>
      <use xlink:href="#DejaVuSans-69" transform="translate(143.798828 0)"/>
      <use xlink:href="#DejaVuSans-64" transform="translate(171.582031 0)"/>
      <use xlink:href="#DejaVuSans-65" transform="translate(235.058594 0)"/>
     </g>
    </g>
   </g>
   <g id="matplotlib.axis_2">
    <g id="ytick_1">
     <g id="line2d_13">
      <path d="M 48.0125 377.288297 
L 781.2 377.288297 
" clip-path="url(#pa1d6130d6e)" style="fill: none; stroke: #b0b0b0; stroke-opacity: 0.3; stroke-width: 0.8; stroke-linecap: square"/>
     </g>
     <g id="line2d_14">
      <defs>
       <path id="m0bea9b6521" d="M 0 0 
L -3.5 0 
" style="stroke: #000000; stroke-width: 0.8"/>
      </defs>
      <g>
       <use xlink:href="#m0bea9b6521" x="48.0125" y="377.288297" style="stroke: #000000; stroke-width: 0.8"/>
      </g>
     </g>
     <g id="text_8">
      <!-- 1.4 -->
      <g transform="translate(25.109375 381.087516) scale(0.1 -0.1)">
       <defs>
        <path id="DejaVuSans-2e" d="M 684 794 
L 1344 794 
L 1344 0 
L 684 0 
L 684 794 
z
" transform="scale(0.015625)"/>
       </defs>
       <use xlink:href="#DejaVuSans-31"/>
       <use xlink:href="#DejaVuSans-2e" transform="translate(63.623047 0)"/>
       <use xlink:href="#DejaVuSans-34" transform="translate(95.410156 0)"/>
      </g>
     </g>
    </g>
    <g id="ytick_2">
     <g id="line2d_15">
      <path d="M 48.0125 328.115039 
L 781.2 328.115039 
" clip-path="url(#pa1d6130d6e)" style="fill: none; stroke: #b0b0b0; stroke-opacity: 0.3; stroke-width: 0.8; stroke-linecap: square"/>
     </g>
     <g id="line2d_16">
      <g>
       <use xlink:href="#m0bea9b6521" x="48.0125" y="328.115039" style="stroke: #000000; stroke-width: 0.8"/>
      </g>
     </g>
     <g id="text_9">
      <!-- 1.5 -->
      <g transform="translate(25.109375 331.914258) scale(0.1 -0.1)">
       <defs>
        <path id="DejaVuSans-35" d="M 691 4666 
L 3169 4666 
L 3169 4134 
L 1269 4134 
L 1269 2991 
Q 1406 3038 1543 3061 
Q 1681 3084 1819 3084 
Q 2600 3084 3056 2656 
Q 3513 2228 3513 1497 
Q 3513 744 3044 326 
Q 2575 -91 1722 -91 
Q 1428 -91 1123 -41 
Q 819 9 494 109 
L 494 744 
Q 775 591 1075 516 
Q 1375 441 1709 441 
Q 2250 441 2565 725 
Q 2881 1009 2881 1497 
Q 2881 1984 2565 2268 
Q 2250 2553 1709 2553 
Q 1456 2553 1204 2497 
Q 953 2441 691 2322 
L 691 4666 
z
" transform="scale(0.015625)"/>
       </defs>
       <use xlink:href="#DejaVuSans-31"/>
       <use xlink:href="#DejaVuSans-2e" transform="translate(63.623047 0)"/>
       <use xlink:href="#DejaVuSans-35" transform="translate(95.410156 0)"/>
      </g>
     </g>
    </g>
    <g id="ytick_3">
     <g id="line2d_17">
      <path d="M 48.0125 278.941781 
L 781.2 278.941781 
" clip-path="url(#pa1d6130d6e)" style="fill: none; stroke: #b0b0b0; stroke-opacity: 0.3; stroke-width: 0.8; stroke-linecap: square"/>
     </g>
     <g id="line2d_18">
      <g>
       <use xlink:href="#m0bea9b6521" x="48.0125" y="278.941781" style="stroke: #000000; stroke-width: 0.8"/>
      </g>
     </g>
     <g id="text_10">
      <!-- 1.6 -->
      <g transform="translate(25.109375 282.741) scale(0.1 -0.1)">
       <use xlink:href="#DejaVuSans-31"/>
       <use xlink:href="#DejaVuSans-2e" transform="translate(63.623047 0)"/>
       <use xlink:href="#DejaVuSans-36" transform="translate(95.410156 0)"/>
      </g>
     </g>
    </g>
    <g id="ytick_4">
     <g id="line2d_19">
      <path d="M 48.0125 229.768523 
L 781.2 229.768523 
" clip-path="url(#pa1d6130d6e)" style="fill: none; stroke: #b0b0b0; stroke-opacity: 0.3; stroke-width: 0.8; stroke-linecap: square"/>
     </g>
     <g id="line2d_20">
      <g>
       <use xlink:href="#m0bea9b6521" x="48.0125" y="229.768523" style="stroke: #000000; stroke-width: 0.8"/>
      </g>
     </g>
     <g id="text_11">
      <!-- 1.7 -->
      <g transform="translate(25.109375 233.567741) scale(0.1 -0.1)">
       <defs>
        <path id="DejaVuSans-37" d="M 525 4666 
L 3525 4666 
L 3525 4397 
L 1831 0 
L 1172 0 
L 2766 4134 
L 525 4134 
L 525 4666 
z
" transform="scale(0.015625)"/>
       </defs>
       <use xlink:href="#DejaVuSans-31"/>
       <use xlink:href="#DejaVuSans-2e" transform="translate(63.623047 0)"/>
       <use xlink:href="#DejaVuSans-37" transform="translate(95.410156 0)"/>
      </g>
     </g>
    </g>
    <g id="ytick_5">
     <g id="line2d_21">
      <path d="M 48.0125 180.595264 
L 781.2 180.595264 
" clip-path="url(#pa1d6130d6e)" style="fill: none; stroke: #b0b0b0; stroke-opacity: 0.3; stroke-width: 0.8; stroke-linecap: square"/>
     </g>
     <g id="line2d_22">
      <g>
       <use xlink:href="#m0bea9b6521" x="48.0125" y="180.595264" style="stroke: #000000; stroke-width: 0.8"/>
      </g>
     </g>
     <g id="text_12">
      <!-- 1.8 -->
      <g transform="translate(25.109375 184.394483) scale(0.1 -0.1)">
       <use xlink:href="#DejaVuSans-31"/>
       <use xlink:href="#DejaVuSans-2e" transform="translate(63.623047 0)"/>
       <use xlink:href="#DejaVuSans-38" transform="translate(95.410156 0)"/>
      </g>
     </g>
    </g>
    <g id="ytick_6">
     <g id="line2d_23">
      <path d="M 48.0125 131.422006 
L 781.2 131.422006 
" clip-path="url(#pa1d6130d6e)" style="fill: none; stroke: #b0b0b0; stroke-opacity: 0.3; stroke-width: 0.8; stroke-linecap: square"/>
     </g>
     <g id="line2d_24">
      <g>
       <use xlink:href="#m0bea9b6521" x="48.0125" y="131.422006" style="stroke: #000000; stroke-width: 0.8"/>
      </g>
     </g>
     <g id="text_13">
      <!-- 1.9 -->
      <g transform="translate(25.109375 135.221225) scale(0.1 -0.1)">
       <defs>
        <path id="DejaVuSans-39" d="M 703 97 
L 703 672 
Q 941 559 1184 500 
Q 1428 441 1663 441 
Q 2288 441 2617 861 
Q 2947 1281 2994 2138 
Q 2813 1869 2534 1725 
Q 2256 1581 1919 1581 
Q 1219 1581 811 2004 
Q 403 2428 403 3163 
Q 403 3881 828 4315 
Q 1253 4750 1959 4750 
Q 2769 4750 3195 4129 
Q 3622 3509 3622 2328 
Q 3622 1225 3098 567 
Q 2575 -91 1691 -91 
Q 1453 -91 1209 -44 
Q 966 3 703 97 
z
M 1959 2075 
Q 2384 2075 2632 2365 
Q 2881 2656 2881 3163 
Q 2881 3666 2632 3958 
Q 2384 4250 1959 4250 
Q 1534 4250 1286 3958 
Q 1038 3666 1038 3163 
Q 1038 2656 1286 2365 
Q 1534 2075 1959 2075 
z
" transform="scale(0.015625)"/>
       </defs>
       <use xlink:href="#DejaVuSans-31"/>
       <use xlink:href="#DejaVuSans-2e" transform="translate(63.623047 0)"/>
       <use xlink:href="#DejaVuSans-39" transform="translate(95.410156 0)"/>
      </g>
     </g>
    </g>
    <g id="ytick_7">
     <g id="line2d_25">
      <path d="M 48.0125 82.248748 
L 781.2 82.248748 
" clip-path="url(#pa1d6130d6e)" style="fill: none; stroke: #b0b0b0; stroke-opacity: 0.3; stroke-width: 0.8; stroke-linecap: square"/>
     </g>
     <g id="line2d_26">
      <g>
       <use xlink:href="#m0bea9b6521" x="48.0125" y="82.248748" style="stroke: #000000; stroke-width: 0.8"/>
      </g>
     </g>
     <g id="text_14">
      <!-- 2.0 -->
      <g transform="translate(25.109375 86.047966) scale(0.1 -0.1)">
       <use xlink:href="#DejaVuSans-32"/>
       <use xlink:href="#DejaVuSans-2e" transform="translate(63.623047 0)"/>
       <use xlink:href="#DejaVuSans-30" transform="translate(95.410156 0)"/>
      </g>
     </g>
    </g>
    <g id="ytick_8">
     <g id="line2d_27">
      <path d="M 48.0125 33.075489 
L 781.2 33.075489 
" clip-path="url(#pa1d6130d6e)" style="fill: none; stroke: #b0b0b0; stroke-opacity: 0.3; stroke-width: 0.8; stroke-linecap: square"/>
     </g>
     <g id="line2d_28">
      <g>
       <use xlink:href="#m0bea9b6521" x="48.0125" y="33.075489" style="stroke: #000000; stroke-width: 0.8"/>
      </g>
     </g>
     <g id="text_15">
      <!-- 2.1 -->
      <g transform="translate(25.109375 36.874708) scale(0.1 -0.1)">
       <use xlink:href="#DejaVuSans-32"/>
       <use xlink:href="#DejaVuSans-2e" transform="translate(63.623047 0)"/>
       <use xlink:href="#DejaVuSans-31" transform="translate(95.410156 0)"/>
      </g>
     </g>
    </g>
    <g id="text_16">
     <!-- Median cycles (billions) -->
     <g transform="translate(19.029687 266.007812) rotate(-90) scale(0.1 -0.1)">
      <defs>
       <path id="DejaVuSans-4d" d="M 628 4666 
L 1569 4666 
L 2759 1491 
L 3956 4666 
L 4897 4666 
L 4897 0 
L 4281 0 
L 4281 4097 
L 3078 897 
L 2444 897 
L 1241 4097 
L 1241 0 
L 628 0 
L 628 4666 
z
" transform="scale(0.015625)"/>
       <path id="DejaVuSans-61" d="M 2194 1759 
Q 1497 1759 1228 1600 
Q 959 1441 959 1056 
Q 959 750 1161 570 
Q 1363 391 1709 391 
Q 2188 391 2477 730 
Q 2766 1069 2766 1631 
L 2766 1759 
L 2194 1759 
z
M 3341 1997 
L 3341 0 
L 2766 0 
L 2766 531 
Q 2569 213 2275 61 
Q 1981 -91 1556 -91 
Q 1019 -91 701 211 
Q 384 513 384 1019 
Q 384 1609 779 1909 
Q 1175 2209 1959 2209 
L 2766 2209 
L 2766 2266 
Q 2766 2663 2505 2880 
Q 2244 3097 1772 3097 
Q 1472 3097 1187 3025 
Q 903 2953 641 2809 
L 641 3341 
Q 956 3463 1253 3523 
Q 1550 3584 1831 3584 
Q 2591 3584 2966 3190 
Q 3341 2797 3341 1997 
z
" transform="scale(0.015625)"/>
       <path id="DejaVuSans-6e" d="M 3513 2113 
L 3513 0 
L 2938 0 
L 2938 2094 
Q 2938 2591 2744 2837 
Q 2550 3084 2163 3084 
Q 1697 3084 1428 2787 
Q 1159 2491 1159 1978 
L 1159 0 
L 581 0 
L 581 3500 
L 1159 3500 
L 1159 2956 
Q 1366 3272 1645 3428 
Q 1925 3584 2291 3584 
Q 2894 3584 3203 3211 
Q 3513 2838 3513 2113 
z
" transform="scale(0.015625)"/>
       <path id="DejaVuSans-20" transform="scale(0.015625)"/>
       <path id="DejaVuSans-63" d="M 3122 3366 
L 3122 2828 
Q 2878 2963 2633 3030 
Q 2388 3097 2138 3097 
Q 1578 3097 1268 2742 
Q 959 2388 959 1747 
Q 959 1106 1268 751 
Q 1578 397 2138 397 
Q 2388 397 2633 464 
Q 2878 531 3122 666 
L 3122 134 
Q 2881 22 2623 -34 
Q 2366 -91 2075 -91 
Q 1284 -91 818 406 
Q 353 903 353 1747 
Q 353 2603 823 3093 
Q 1294 3584 2113 3584 
Q 2378 3584 2631 3529 
Q 2884 3475 3122 3366 
z
" transform="scale(0.015625)"/>
       <path id="DejaVuSans-79" d="M 2059 -325 
Q 1816 -950 1584 -1140 
Q 1353 -1331 966 -1331 
L 506 -1331 
L 506 -850 
L 844 -850 
Q 1081 -850 1212 -737 
Q 1344 -625 1503 -206 
L 1606 56 
L 191 3500 
L 800 3500 
L 1894 763 
L 2988 3500 
L 3597 3500 
L 2059 -325 
z
" transform="scale(0.015625)"/>
       <path id="DejaVuSans-6c" d="M 603 4863 
L 1178 4863 
L 1178 0 
L 603 0 
L 603 4863 
z
" transform="scale(0.015625)"/>
       <path id="DejaVuSans-73" d="M 2834 3397 
L 2834 2853 
Q 2591 2978 2328 3040 
Q 2066 3103 1784 3103 
Q 1356 3103 1142 2972 
Q 928 2841 928 2578 
Q 928 2378 1081 2264 
Q 1234 2150 1697 2047 
L 1894 2003 
Q 2506 1872 2764 1633 
Q 3022 1394 3022 966 
Q 3022 478 2636 193 
Q 2250 -91 1575 -91 
Q 1294 -91 989 -36 
Q 684 19 347 128 
L 347 722 
Q 666 556 975 473 
Q 1284 391 1588 391 
Q 1994 391 2212 530 
Q 2431 669 2431 922 
Q 2431 1156 2273 1281 
Q 2116 1406 1581 1522 
L 1381 1569 
Q 847 1681 609 1914 
Q 372 2147 372 2553 
Q 372 3047 722 3315 
Q 1072 3584 1716 3584 
Q 2034 3584 2315 3537 
Q 2597 3491 2834 3397 
z
" transform="scale(0.015625)"/>
       <path id="DejaVuSans-28" d="M 1984 4856 
Q 1566 4138 1362 3434 
Q 1159 2731 1159 2009 
Q 1159 1288 1364 580 
Q 1569 -128 1984 -844 
L 1484 -844 
Q 1016 -109 783 600 
Q 550 1309 550 2009 
Q 550 2706 781 3412 
Q 1013 4119 1484 4856 
L 1984 4856 
z
" transform="scale(0.015625)"/>
       <path id="DejaVuSans-62" d="M 3116 1747 
Q 3116 2381 2855 2742 
Q 2594 3103 2138 3103 
Q 1681 3103 1420 2742 
Q 1159 2381 1159 1747 
Q 1159 1113 1420 752 
Q 1681 391 2138 391 
Q 2594 391 2855 752 
Q 3116 1113 3116 1747 
z
M 1159 2969 
Q 1341 3281 1617 3432 
Q 1894 3584 2278 3584 
Q 2916 3584 3314 3078 
Q 3713 2572 3713 1747 
Q 3713 922 3314 415 
Q 2916 -91 2278 -91 
Q 1894 -91 1617 61 
Q 1341 213 1159 525 
L 1159 0 
L 581 0 
L 581 4863 
L 1159 4863 
L 1159 2969 
z
" transform="scale(0.015625)"/>
       <path id="DejaVuSans-6f" d="M 1959 3097 
Q 1497 3097 1228 2736 
Q 959 2375 959 1747 
Q 959 1119 1226 758 
Q 1494 397 1959 397 
Q 2419 397 2687 759 
Q 2956 1122 2956 1747 
Q 2956 2369 2687 2733 
Q 2419 3097 1959 3097 
z
M 1959 3584 
Q 2709 3584 3137 3096 
Q 3566 2609 3566 1747 
Q 3566 888 3137 398 
Q 2709 -91 1959 -91 
Q 1206 -91 779 398 
Q 353 888 353 1747 
Q 353 2609 779 3096 
Q 1206 3584 1959 3584 
z
" transform="scale(0.015625)"/>
       <path id="DejaVuSans-29" d="M 513 4856 
L 1013 4856 
Q 1481 4119 1714 3412 
Q 1947 2706 1947 2009 
Q 1947 1309 1714 600 
Q 1481 -109 1013 -844 
L 513 -844 
Q 928 -128 1133 580 
Q 1338 1288 1338 2009 
Q 1338 2731 1133 3434 
Q 928 4138 513 4856 
z
" transform="scale(0.015625)"/>
      </defs>
      <use xlink:href="#DejaVuSans-4d"/>
      <use xlink:href="#DejaVuSans-65" transform="translate(86.279297 0)"/>
      <use xlink:href="#DejaVuSans-64" transform="translate(147.802734 0)"/>
      <use xlink:href="#DejaVuSans-69" transform="translate(211.279297 0)"/>
      <use xlink:href="#DejaVuSans-61" transform="translate(239.0625 0)"/>
      <use xlink:href="#DejaVuSans-6e" transform="translate(300.341797 0)"/>
      <use xlink:href="#DejaVuSans-20" transform="translate(363.720703 0)"/>
      <use xlink:href="#DejaVuSans-63" transform="translate(395.507812 0)"/>
      <use xlink:href="#DejaVuSans-79" transform="translate(450.488281 0)"/>
      <use xlink:href="#DejaVuSans-63" transform="translate(509.667969 0)"/>
      <use xlink:href="#DejaVuSans-6c" transform="translate(564.648438 0)"/>
      <use xlink:href="#DejaVuSans-65" transform="translate(592.431641 0)"/>
      <use xlink:href="#DejaVuSans-73" transform="translate(653.955078 0)"/>
      <use xlink:href="#DejaVuSans-20" transform="translate(706.054688 0)"/>
      <use xlink:href="#DejaVuSans-28" transform="translate(737.841797 0)"/>
      <use xlink:href="#DejaVuSans-62" transform="translate(776.855469 0)"/>
      <use xlink:href="#DejaVuSans-69" transform="translate(840.332031 0)"/>
      <use xlink:href="#DejaVuSans-6c" transform="translate(868.115234 0)"/>
      <use xlink:href="#DejaVuSans-6c" transform="translate(895.898438 0)"/>
      <use xlink:href="#DejaVuSans-69" transform="translate(923.681641 0)"/>
      <use xlink:href="#DejaVuSans-6f" transform="translate(951.464844 0)"/>
      <use xlink:href="#DejaVuSans-6e" transform="translate(1012.646484 0)"/>
      <use xlink:href="#DejaVuSans-73" transform="translate(1076.025391 0)"/>
      <use xlink:href="#DejaVuSans-29" transform="translate(1128.125 0)"/>
     </g>
    </g>
   </g>
   <g id="line2d_29">
    <path d="M 81.339205 372.968182 
L 88.071872 332.191228 
L 94.80454 289.731442 
L 101.537207 202.186646 
L 108.269875 174.610667 
L 115.002542 132.833961 
L 121.73521 101.816606 
L 128.467878 42.331818 
L 135.200545 60.343366 
L 141.933213 47.452568 
L 148.66588 57.585717 
L 155.398548 45.561103 
L 162.131216 67.336349 
L 168.863883 67.31536 
L 175.596551 77.797737 
L 182.329218 123.389074 
L 189.061886 116.818997 
L 195.794553 136.518911 
L 202.527221 157.414365 
L 209.259889 159.46863 
L 215.992556 201.835385 
L 222.725224 201.232834 
L 229.457891 236.598199 
L 236.190559 251.775584 
L 242.923227 268.990742 
L 249.655894 273.563001 
L 256.388562 300.444901 
L 263.121229 287.153323 
L 269.853897 324.771376 
L 276.586565 313.905989 
L 283.319232 336.03178 
L 290.0519 120.205583 
L 296.784567 354.864279 
L 303.517235 315.748391 
L 310.249902 351.045022 
L 316.98257 327.106554 
L 323.715238 352.541911 
L 330.447905 335.787778 
L 337.180573 360.143062 
L 343.91324 321.522457 
L 350.645908 362.394127 
L 357.378576 350.353303 
L 364.111243 363.804973 
L 370.843911 333.762459 
L 377.576578 363.996622 
L 384.309246 343.005124 
L 391.041913 364.361813 
L 397.774581 245.807258 
L 404.507249 364.532447 
L 411.239916 344.764656 
L 417.972584 364.079271 
L 424.705251 328.169397 
L 431.437919 363.883234 
L 438.170587 345.64746 
L 444.903254 363.897896 
L 451.635922 333.247487 
L 458.368589 364.702729 
L 465.101257 349.205241 
L 471.833924 356.020303 
L 478.566592 335.011305 
L 485.29926 363.990704 
L 492.031927 345.127301 
L 498.764595 363.842574 
L 505.497262 130.484802 
L 512.22993 354.68051 
L 518.962598 338.190974 
L 525.695265 355.521584 
L 532.427933 320.084957 
L 539.1606 363.236433 
L 545.893268 347.859659 
L 552.625935 363.897693 
L 559.358603 324.886753 
L 566.091271 364.627108 
L 572.823938 351.173788 
L 579.556606 363.543379 
L 586.289273 325.575633 
L 593.021941 364.54896 
L 599.754609 349.872542 
L 606.487276 364.133046 
L 613.219944 328.289258 
L 619.952611 364.497854 
L 626.685279 346.697825 
L 633.417947 366.464574 
L 640.150614 326.861951 
L 646.883282 365.666869 
L 653.615949 346.785308 
L 660.348617 367.552906 
L 667.081284 320.175988 
L 673.813952 359.452045 
L 680.54662 351.863083 
L 687.279287 368.07736 
L 694.011955 341.847833 
L 700.744622 359.196436 
L 707.47729 355.908462 
L 714.209958 368.751925 
L 720.942625 252.307445 
L 727.675293 369.415024 
L 734.40796 347.220979 
L 741.140628 369.979776 
L 747.873295 320.03281 
" clip-path="url(#pa1d6130d6e)" style="fill: none; stroke: #1f77b4; stroke-width: 1.8; stroke-linecap: square"/>
    <defs>
     <path id="mc939e51c7d" d="M 0 2 
C 0.530406 2 1.03916 1.789267 1.414214 1.414214 
C 1.789267 1.03916 2 0.530406 2 0 
C 2 -0.530406 1.789267 -1.03916 1.414214 -1.414214 
C 1.03916 -1.789267 0.530406 -2 0 -2 
C -0.530406 -2 -1.03916 -1.789267 -1.414214 -1.414214 
C -1.789267 -1.03916 -2 -0.530406 -2 0 
C -2 0.530406 -1.789267 1.03916 -1.414214 1.414214 
C -1.03916 1.789267 -0.530406 2 0 2 
z
" style="stroke: #1f77b4"/>
    </defs>
    <g clip-path="url(#pa1d6130d6e)">
     <use xlink:href="#mc939e51c7d" x="81.339205" y="372.968182" style="fill: #1f77b4; stroke: #1f77b4"/>
     <use xlink:href="#mc939e51c7d" x="88.071872" y="332.191228" style="fill: #1f77b4; stroke: #1f77b4"/>
     <use xlink:href="#mc939e51c7d" x="94.80454" y="289.731442" style="fill: #1f77b4; stroke: #1f77b4"/>
     <use xlink:href="#mc939e51c7d" x="101.537207" y="202.186646" style="fill: #1f77b4; stroke: #1f77b4"/>
     <use xlink:href="#mc939e51c7d" x="108.269875" y="174.610667" style="fill: #1f77b4; stroke: #1f77b4"/>
     <use xlink:href="#mc939e51c7d" x="115.002542" y="132.833961" style="fill: #1f77b4; stroke: #1f77b4"/>
     <use xlink:href="#mc939e51c7d" x="121.73521" y="101.816606" style="fill: #1f77b4; stroke: #1f77b4"/>
     <use xlink:href="#mc939e51c7d" x="128.467878" y="42.331818" style="fill: #1f77b4; stroke: #1f77b4"/>
     <use xlink:href="#mc939e51c7d" x="135.200545" y="60.343366" style="fill: #1f77b4; stroke: #1f77b4"/>
     <use xlink:href="#mc939e51c7d" x="141.933213" y="47.452568" style="fill: #1f77b4; stroke: #1f77b4"/>
     <use xlink:href="#mc939e51c7d" x="148.66588" y="57.585717" style="fill: #1f77b4; stroke: #1f77b4"/>
     <use xlink:href="#mc939e51c7d" x="155.398548" y="45.561103" style="fill: #1f77b4; stroke: #1f77b4"/>
     <use xlink:href="#mc939e51c7d" x="162.131216" y="67.336349" style="fill: #1f77b4; stroke: #1f77b4"/>
     <use xlink:href="#mc939e51c7d" x="168.863883" y="67.31536" style="fill: #1f77b4; stroke: #1f77b4"/>
     <use xlink:href="#mc939e51c7d" x="175.596551" y="77.797737" style="fill: #1f77b4; stroke: #1f77b4"/>
     <use xlink:href="#mc939e51c7d" x="182.329218" y="123.389074" style="fill: #1f77b4; stroke: #1f77b4"/>
     <use xlink:href="#mc939e51c7d" x="189.061886" y="116.818997" style="fill: #1f77b4; stroke: #1f77b4"/>
     <use xlink:href="#mc939e51c7d" x="195.794553" y="136.518911" style="fill: #1f77b4; stroke: #1f77b4"/>
     <use xlink:href="#mc939e51c7d" x="202.527221" y="157.414365" style="fill: #1f77b4; stroke: #1f77b4"/>
     <use xlink:href="#mc939e51c7d" x="209.259889" y="159.46863" style="fill: #1f77b4; stroke: #1f77b4"/>
     <use xlink:href="#mc939e51c7d" x="215.992556" y="201.835385" style="fill: #1f77b4; stroke: #1f77b4"/>
     <use xlink:href="#mc939e51c7d" x="222.725224" y="201.232834" style="fill: #1f77b4; stroke: #1f77b4"/>
     <use xlink:href="#mc939e51c7d" x="229.457891" y="236.598199" style="fill: #1f77b4; stroke: #1f77b4"/>
     <use xlink:href="#mc939e51c7d" x="236.190559" y="251.775584" style="fill: #1f77b4; stroke: #1f77b4"/>
     <use xlink:href="#mc939e51c7d" x="242.923227" y="268.990742" style="fill: #1f77b4; stroke: #1f77b4"/>
     <use xlink:href="#mc939e51c7d" x="249.655894" y="273.563001" style="fill: #1f77b4; stroke: #1f77b4"/>
     <use xlink:href="#mc939e51c7d" x="256.388562" y="300.444901" style="fill: #1f77b4; stroke: #1f77b4"/>
     <use xlink:href="#mc939e51c7d" x="263.121229" y="287.153323" style="fill: #1f77b4; stroke: #1f77b4"/>
     <use xlink:href="#mc939e51c7d" x="269.853897" y="324.771376" style="fill: #1f77b4; stroke: #1f77b4"/>
     <use xlink:href="#mc939e51c7d" x="276.586565" y="313.905989" style="fill: #1f77b4; stroke: #1f77b4"/>
     <use xlink:href="#mc939e51c7d" x="283.319232" y="336.03178" style="fill: #1f77b4; stroke: #1f77b4"/>
     <use xlink:href="#mc939e51c7d" x="290.0519" y="120.205583" style="fill: #1f77b4; stroke: #1f77b4"/>
     <use xlink:href="#mc939e51c7d" x="296.784567" y="354.864279" style="fill: #1f77b4; stroke: #1f77b4"/>
     <use xlink:href="#mc939e51c7d" x="303.517235" y="315.748391" style="fill: #1f77b4; stroke: #1f77b4"/>
     <use xlink:href="#mc939e51c7d" x="310.249902" y="351.045022" style="fill: #1f77b4; stroke: #1f77b4"/>
     <use xlink:href="#mc939e51c7d" x="316.98257" y="327.106554" style="fill: #1f77b4; stroke: #1f77b4"/>
     <use xlink:href="#mc939e51c7d" x="323.715238" y="352.541911" style="fill: #1f77b4; stroke: #1f77b4"/>
     <use xlink:href="#mc939e51c7d" x="330.447905" y="335.787778" style="fill: #1f77b4; stroke: #1f77b4"/>
     <use xlink:href="#mc939e51c7d" x="337.180573" y="360.143062" style="fill: #1f77b4; stroke: #1f77b4"/>
     <use xlink:href="#mc939e51c7d" x="343.91324" y="321.522457" style="fill: #1f77b4; stroke: #1f77b4"/>
     <use xlink:href="#mc939e51c7d" x="350.645908" y="362.394127" style="fill: #1f77b4; stroke: #1f77b4"/>
     <use xlink:href="#mc939e51c7d" x="357.378576" y="350.353303" style="fill: #1f77b4; stroke: #1f77b4"/>
     <use xlink:href="#mc939e51c7d" x="364.111243" y="363.804973" style="fill: #1f77b4; stroke: #1f77b4"/>
     <use xlink:href="#mc939e51c7d" x="370.843911" y="333.762459" style="fill: #1f77b4; stroke: #1f77b4"/>
     <use xlink:href="#mc939e51c7d" x="377.576578" y="363.996622" style="fill: #1f77b4; stroke: #1f77b4"/>
     <use xlink:href="#mc939e51c7d" x="384.309246" y="343.005124" style="fill: #1f77b4; stroke: #1f77b4"/>
     <use xlink:href="#mc939e51c7d" x="391.041913" y="364.361813" style="fill: #1f77b4; stroke: #1f77b4"/>
     <use xlink:href="#mc939e51c7d" x="397.774581" y="245.807258" style="fill: #1f77b4; stroke: #1f77b4"/>
     <use xlink:href="#mc939e51c7d" x="404.507249" y="364.532447" style="fill: #1f77b4; stroke: #1f77b4"/>
     <use xlink:href="#mc939e51c7d" x="411.239916" y="344.764656" style="fill: #1f77b4; stroke: #1f77b4"/>
     <use xlink:href="#mc939e51c7d" x="417.972584" y="364.079271" style="fill: #1f77b4; stroke: #1f77b4"/>
     <use xlink:href="#mc939e51c7d" x="424.705251" y="328.169397" style="fill: #1f77b4; stroke: #1f77b4"/>
     <use xlink:href="#mc939e51c7d" x="431.437919" y="363.883234" style="fill: #1f77b4; stroke: #1f77b4"/>
     <use xlink:href="#mc939e51c7d" x="438.170587" y="345.64746" style="fill: #1f77b4; stroke: #1f77b4"/>
     <use xlink:href="#mc939e51c7d" x="444.903254" y="363.897896" style="fill: #1f77b4; stroke: #1f77b4"/>
     <use xlink:href="#mc939e51c7d" x="451.635922" y="333.247487" style="fill: #1f77b4; stroke: #1f77b4"/>
     <use xlink:href="#mc939e51c7d" x="458.368589" y="364.702729" style="fill: #1f77b4; stroke: #1f77b4"/>
     <use xlink:href="#mc939e51c7d" x="465.101257" y="349.205241" style="fill: #1f77b4; stroke: #1f77b4"/>
     <use xlink:href="#mc939e51c7d" x="471.833924" y="356.020303" style="fill: #1f77b4; stroke: #1f77b4"/>
     <use xlink:href="#mc939e51c7d" x="478.566592" y="335.011305" style="fill: #1f77b4; stroke: #1f77b4"/>
     <use xlink:href="#mc939e51c7d" x="485.29926" y="363.990704" style="fill: #1f77b4; stroke: #1f77b4"/>
     <use xlink:href="#mc939e51c7d" x="492.031927" y="345.127301" style="fill: #1f77b4; stroke: #1f77b4"/>
     <use xlink:href="#mc939e51c7d" x="498.764595" y="363.842574" style="fill: #1f77b4; stroke: #1f77b4"/>
     <use xlink:href="#mc939e51c7d" x="505.497262" y="130.484802" style="fill: #1f77b4; stroke: #1f77b4"/>
     <use xlink:href="#mc939e51c7d" x="512.22993" y="354.68051" style="fill: #1f77b4; stroke: #1f77b4"/>
     <use xlink:href="#mc939e51c7d" x="518.962598" y="338.190974" style="fill: #1f77b4; stroke: #1f77b4"/>
     <use xlink:href="#mc939e51c7d" x="525.695265" y="355.521584" style="fill: #1f77b4; stroke: #1f77b4"/>
     <use xlink:href="#mc939e51c7d" x="532.427933" y="320.084957" style="fill: #1f77b4; stroke: #1f77b4"/>
     <use xlink:href="#mc939e51c7d" x="539.1606" y="363.236433" style="fill: #1f77b4; stroke: #1f77b4"/>
     <use xlink:href="#mc939e51c7d" x="545.893268" y="347.859659" style="fill: #1f77b4; stroke: #1f77b4"/>
     <use xlink:href="#mc939e51c7d" x="552.625935" y="363.897693" style="fill: #1f77b4; stroke: #1f77b4"/>
     <use xlink:href="#mc939e51c7d" x="559.358603" y="324.886753" style="fill: #1f77b4; stroke: #1f77b4"/>
     <use xlink:href="#mc939e51c7d" x="566.091271" y="364.627108" style="fill: #1f77b4; stroke: #1f77b4"/>
     <use xlink:href="#mc939e51c7d" x="572.823938" y="351.173788" style="fill: #1f77b4; stroke: #1f77b4"/>
     <use xlink:href="#mc939e51c7d" x="579.556606" y="363.543379" style="fill: #1f77b4; stroke: #1f77b4"/>
     <use xlink:href="#mc939e51c7d" x="586.289273" y="325.575633" style="fill: #1f77b4; stroke: #1f77b4"/>
     <use xlink:href="#mc939e51c7d" x="593.021941" y="364.54896" style="fill: #1f77b4; stroke: #1f77b4"/>
     <use xlink:href="#mc939e51c7d" x="599.754609" y="349.872542" style="fill: #1f77b4; stroke: #1f77b4"/>
     <use xlink:href="#mc939e51c7d" x="606.487276" y="364.133046" style="fill: #1f77b4; stroke: #1f77b4"/>
     <use xlink:href="#mc939e51c7d" x="613.219944" y="328.289258" style="fill: #1f77b4; stroke: #1f77b4"/>
     <use xlink:href="#mc939e51c7d" x="619.952611" y="364.497854" style="fill: #1f77b4; stroke: #1f77b4"/>
     <use xlink:href="#mc939e51c7d" x="626.685279" y="346.697825" style="fill: #1f77b4; stroke: #1f77b4"/>
     <use xlink:href="#mc939e51c7d" x="633.417947" y="366.464574" style="fill: #1f77b4; stroke: #1f77b4"/>
     <use xlink:href="#mc939e51c7d" x="640.150614" y="326.861951" style="fill: #1f77b4; stroke: #1f77b4"/>
     <use xlink:href="#mc939e51c7d" x="646.883282" y="365.666869" style="fill: #1f77b4; stroke: #1f77b4"/>
     <use xlink:href="#mc939e51c7d" x="653.615949" y="346.785308" style="fill: #1f77b4; stroke: #1f77b4"/>
     <use xlink:href="#mc939e51c7d" x="660.348617" y="367.552906" style="fill: #1f77b4; stroke: #1f77b4"/>
     <use xlink:href="#mc939e51c7d" x="667.081284" y="320.175988" style="fill: #1f77b4; stroke: #1f77b4"/>
     <use xlink:href="#mc939e51c7d" x="673.813952" y="359.452045" style="fill: #1f77b4; stroke: #1f77b4"/>
     <use xlink:href="#mc939e51c7d" x="680.54662" y="351.863083" style="fill: #1f77b4; stroke: #1f77b4"/>
     <use xlink:href="#mc939e51c7d" x="687.279287" y="368.07736" style="fill: #1f77b4; stroke: #1f77b4"/>
     <use xlink:href="#mc939e51c7d" x="694.011955" y="341.847833" style="fill: #1f77b4; stroke: #1f77b4"/>
     <use xlink:href="#mc939e51c7d" x="700.744622" y="359.196436" style="fill: #1f77b4; stroke: #1f77b4"/>
     <use xlink:href="#mc939e51c7d" x="707.47729" y="355.908462" style="fill: #1f77b4; stroke: #1f77b4"/>
     <use xlink:href="#mc939e51c7d" x="714.209958" y="368.751925" style="fill: #1f77b4; stroke: #1f77b4"/>
     <use xlink:href="#mc939e51c7d" x="720.942625" y="252.307445" style="fill: #1f77b4; stroke: #1f77b4"/>
     <use xlink:href="#mc939e51c7d" x="727.675293" y="369.415024" style="fill: #1f77b4; stroke: #1f77b4"/>
     <use xlink:href="#mc939e51c7d" x="734.40796" y="347.220979" style="fill: #1f77b4; stroke: #1f77b4"/>
     <use xlink:href="#mc939e51c7d" x="741.140628" y="369.979776" style="fill: #1f77b4; stroke: #1f77b4"/>
     <use xlink:href="#mc939e51c7d" x="747.873295" y="320.03281" style="fill: #1f77b4; stroke: #1f77b4"/>
    </g>
   </g>
   <g id="patch_3">
    <path d="M 48.0125 389.5 
L 48.0125 25.8 
" style="fill: none; stroke: #000000; stroke-width: 0.8; stroke-linejoin: miter; stroke-linecap: square"/>
   </g>
   <g id="patch_4">
    <path d="M 781.2 389.5 
L 781.2 25.8 
" style="fill: none; stroke: #000000; stroke-width: 0.8; stroke-linejoin: miter; stroke-linecap: square"/>
   </g>
   <g id="patch_5">
    <path d="M 48.0125 389.5 
L 781.2 389.5 
" style="fill: none; stroke: #000000; stroke-width: 0.8; stroke-linejoin: miter; stroke-linecap: square"/>
   </g>
   <g id="patch_6">
    <path d="M 48.0125 25.8 
L 781.2 25.8 
" style="fill: none; stroke: #000000; stroke-width: 0.8; stroke-linejoin: miter; stroke-linecap: square"/>
   </g>
   <g id="text_17">
    <!-- Median Cycles by Stride -->
    <g transform="translate(342.38125 19.8) scale(0.12 -0.12)">
     <defs>
      <path id="DejaVuSans-43" d="M 4122 4306 
L 4122 3641 
Q 3803 3938 3442 4084 
Q 3081 4231 2675 4231 
Q 1875 4231 1450 3742 
Q 1025 3253 1025 2328 
Q 1025 1406 1450 917 
Q 1875 428 2675 428 
Q 3081 428 3442 575 
Q 3803 722 4122 1019 
L 4122 359 
Q 3791 134 3420 21 
Q 3050 -91 2638 -91 
Q 1578 -91 968 557 
Q 359 1206 359 2328 
Q 359 3453 968 4101 
Q 1578 4750 2638 4750 
Q 3056 4750 3426 4639 
Q 3797 4528 4122 4306 
z
" transform="scale(0.015625)"/>
     </defs>
     <use xlink:href="#DejaVuSans-4d"/>
     <use xlink:href="#DejaVuSans-65" transform="translate(86.279297 0)"/>
     <use xlink:href="#DejaVuSans-64" transform="translate(147.802734 0)"/>
     <use xlink:href="#DejaVuSans-69" transform="translate(211.279297 0)"/>
     <use xlink:href="#DejaVuSans-61" transform="translate(239.0625 0)"/>
     <use xlink:href="#DejaVuSans-6e" transform="translate(300.341797 0)"/>
     <use xlink:href="#DejaVuSans-20" transform="translate(363.720703 0)"/>
     <use xlink:href="#DejaVuSans-43" transform="translate(395.507812 0)"/>
     <use xlink:href="#DejaVuSans-79" transform="translate(465.332031 0)"/>
     <use xlink:href="#DejaVuSans-63" transform="translate(524.511719 0)"/>
     <use xlink:href="#DejaVuSans-6c" transform="translate(579.492188 0)"/>
     <use xlink:href="#DejaVuSans-65" transform="translate(607.275391 0)"/>
     <use xlink:href="#DejaVuSans-73" transform="translate(668.798828 0)"/>
     <use xlink:href="#DejaVuSans-20" transform="translate(720.898438 0)"/>
     <use xlink:href="#DejaVuSans-62" transform="translate(752.685547 0)"/>
     <use xlink:href="#DejaVuSans-79" transform="translate(816.162109 0)"/>
     <use xlink:href="#DejaVuSans-20" transform="translate(875.341797 0)"/>
     <use xlink:href="#DejaVuSans-53" transform="translate(907.128906 0)"/>
     <use xlink:href="#DejaVuSans-74" transform="translate(970.605469 0)"/>
     <use xlink:href="#DejaVuSans-72" transform="translate(1009.814453 0)"/>
     <use xlink:href="#DejaVuSans-69" transform="translate(1050.927734 0)"/>
     <use xlink:href="#DejaVuSans-64" transform="translate(1078.710938 0)"/>
     <use xlink:href="#DejaVuSans-65" transform="translate(1142.1875 0)"/>
    </g>
   </g>
  </g>
 </g>
 <defs>
  <clipPath id="pa1d6130d6e">
   <rect x="48.0125" y="25.8" width="733.1875" height="363.7"/>
  </clipPath>
 </defs>

<g id="coordinate-overlay">
  <defs>
    <clipPath id="coordinate-clip">
      <rect x="48.012500" y="25.800000" width="733.187500" height="363.700000"/>
    </clipPath>
  </defs>
  <style>
    #coordinate-hit-area { cursor: crosshair; }
    #coordinate-crosshair { display: none; pointer-events: none; }
    #coordinate-crosshair line { stroke: #dc2626; stroke-width: 0.9; stroke-opacity: 0.8; }
    #coordinate-readout { pointer-events: none; }
    #coordinate-readout-bg { fill: #ffffff; fill-opacity: 0.92; stroke: #d1d5db; stroke-width: 0.5; }
    #coordinate-readout-text { fill: #111827; font: 11px ui-monospace, SFMono-Regular, Menlo, Consolas, monospace; }
  </style>
  <g id="coordinate-crosshair" clip-path="url(#coordinate-clip)">
    <line id="coordinate-vline" x1="48.012500" y1="25.800000" x2="48.012500" y2="389.500000"/>
    <line id="coordinate-hline" x1="48.012500" y1="25.800000" x2="781.200000" y2="25.800000"/>
  </g>
  <g id="coordinate-readout">
    <rect id="coordinate-readout-bg" x="56.012500" y="33.800000" width="252" height="22" rx="4"/>
    <text id="coordinate-readout-text" x="62.012500" y="48.800000">Move mouse over plot</text>
  </g>
  <rect id="coordinate-hit-area" x="48.012500" y="25.800000" width="733.187500" height="363.700000" fill="transparent" pointer-events="all"/>
  <script type="application/ecmascript"><![CDATA[
(function () {
  const metadata = {"axes": {"left": 48.012499999999996, "right": 781.1999999999999, "top": 25.799999999999955, "bottom": 389.5}, "xlim": [-3.95, 104.95], "ylim": [1375165968.3, 2114795621.7]};
  const svg = document.documentElement;
  const hitArea = document.getElementById("coordinate-hit-area");
  const crosshair = document.getElementById("coordinate-crosshair");
  const vline = document.getElementById("coordinate-vline");
  const hline = document.getElementById("coordinate-hline");
  const readoutBg = document.getElementById("coordinate-readout-bg");
  const readoutText = document.getElementById("coordinate-readout-text");
  const svgPoint = svg.createSVGPoint();

  function eventPoint(event) {
    const screenMatrix = svg.getScreenCTM();
    if (!screenMatrix) {
      return null;
    }
    svgPoint.x = event.clientX;
    svgPoint.y = event.clientY;
    return svgPoint.matrixTransform(screenMatrix.inverse());
  }

  function setReadout(text) {
    readoutText.textContent = text;
    const bbox = readoutText.getBBox();
    readoutBg.setAttribute("width", Math.ceil(bbox.width + 12));
  }

  function formatCycles(cycles) {
    return Math.round(cycles).toLocaleString() + " cycles (" + (cycles / 1e9).toFixed(3) + "B)";
  }

  function showCrosshair(point) {
    crosshair.style.display = "inline";
    vline.setAttribute("x1", point.x);
    vline.setAttribute("x2", point.x);
    hline.setAttribute("y1", point.y);
    hline.setAttribute("y2", point.y);
  }

  function hideCrosshair() {
    crosshair.style.display = "none";
  }

  hitArea.addEventListener("mousemove", function (event) {
    const point = eventPoint(event);
    if (!point) {
      return;
    }

    const axes = metadata.axes;
    const xFraction = (point.x - axes.left) / (axes.right - axes.left);
    const yFraction = (point.y - axes.top) / (axes.bottom - axes.top);
    const stride = metadata.xlim[0] + xFraction * (metadata.xlim[1] - metadata.xlim[0]);
    const cycles = metadata.ylim[1] - yFraction * (metadata.ylim[1] - metadata.ylim[0]);

    showCrosshair(point);
    setReadout("stride=" + stride.toFixed(2) + "  cycles=" + formatCycles(cycles));
  });

  hitArea.addEventListener("mouseleave", function () {
    hideCrosshair();
    setReadout("Move mouse over plot");
  });

  setReadout("Move mouse over plot");
})();
  ]]></script>
</g>
</svg>
